<svg version="1" xmlns="http://www.w3.org/2000/svg" width="682.667" height="682.667" viewBox="0 0 512.000000 512.000000"><path d="M10.4 50.7c-1.2 2.7-1.3 389.4-.1 391.7.5 1.1 2.1 3.1 3.5 4.5s2 1.9 1.4 1.1c-.9-1.3-.7-1.6.7-1.6 1.2 0 1.7.5 1.3 1.5-.4 1-.1 1.2.9.6 1.2-.8 1.2-.6 0 .8-1.7 2.1-.8 2.2 2.3.2 2-1.4 2.3-1.3 2.3 0 0 .9-.6 1.4-1.2 1.1-.6-.2-1.2.2-1.2.9 0 1 .5 1.1 1.8.4 2.3-1.2 4-.8 5.7 1.1 1.1 1.3 1.1 1.1.2-.8-.6-1.2-1.5-2-2-1.7-.5.3-1.1.2-1.4-.3-.2-.4.8-.8 2.4-.7 1.5 0 2.6.3 2.3.7-.2.5.3.8 1.2.8.9 0 1.4-.4 1.1-.9-.5-.8 2.2-.8 3.2-.1.8.8 4.9.4 6.1-.4 1.1-.8 1.3-.8.7.2-.4.7-.2 1.2.4 1.2.6 0 .8.5.4 1.2-.5.7-.3.8.5.4.7-.5 1-1.4.7-2.1-.3-.8.2-1.2 1.2-1 .9.2 1.8.4 2 .5.1.2 1.5.3 3.1.4 1.6 0 3.3.5 3.8 1s.3.6-.4.2c-.9-.5-1.1-.2-.6.9.4 1.2.8 1.3 1.3.5.8-1.3 2-1.3 3.6.1.7.5 1.1.4 1.1-.5 0-.8-.8-1.3-1.8-1.1-1 .2-2-.3-2.3-1.1-.4-1.1-.1-1.2 1.2-.5 1.7.9 2.4 1.1 4.3 1.1.5 0 .7.5.3 1.1-.4.8 0 .8 1.5 0 1.1-.7 2.1-.9 2.1-.5 0 .3.6.1 1.3-.5.8-.6 1.6-.8 2-.5.3.3.3-.5 0-1.8-.5-2.2-.5-2.3 1-.3.8 1.1 1.9 1.7 2.3 1.2.4-.4.2-.7-.4-.7-1.7 0-1.5-2.5.3-4 .8-.7 1.2-1.7.8-2.3-.3-.6-.1-.7.5-.3.9.5.7 1.5-.4 3.4s-1.2 2.2-.2 1c.8-1 1.9-1.4 2.3-1 .5.4.5.1.1-.6-.5-.8.2-1.6 1.9-2.2 1.4-.5 2.3-1.4 2-2-.9-1.5-1.7-1.2-.9.2.4.7.4 1-.1.6-.4-.4-1.4-.3-2.2.3-.8.7-1.3.8-1.3.1 0-.5.7-1.3 1.6-1.6.8-.3 1.2-1.1.8-1.7-.8-1.4 1.1-.4 3.7 1.8 1.3 1.1 1.6 1.1 1.6-.2 0-.8-.3-1.3-.6-1.1-.3.2-1.1-.2-1.7-.8-.9-1-.7-1.5.7-2.4 1.3-.9 2-.9 2.5 0 .4.6.3.8-.4.4-.6-.3-1.3-.2-1.6.3-.8 1.2 1.4.8 3.9-.7 1.2-.7 1.4-1.2.6-1.2-.8 0-1.1-.6-.7-1.6.5-1.3.4-1.4-.7-.6-1 .9-1.4.8-1.4-.2 0-.9.8-1.3 2.3-1 1.7.3 2.2 0 1.8-.9-.2-.7.6-2.2 1.8-3.3 1.3-1.1 1.8-1.2 1-.3-.6.9-.8 2-.4 2.4.4.5.1.5-.7 0-.9-.5-1.2-.4-.7.3 1 1.7 2.9 1.5 2.2-.3-.6-1.6 2.6-3.9 3.9-2.7.5.4.5.1.1-.6s-1.2-1-1.7-.6c-.5.3-1.6 0-2.4-.6-1.2-1-1.5-1-1.5 0 0 .8-.3 1.1-.6.7-.3-.3-.3-1.1.1-1.7.5-.8 1.1-.8 2.1.1.9.7 1.4.8 1.4.1 0-.6-.4-1.3-1-1.7-.5-.3-.6-1.3-.3-2.2.5-1.2.3-1.4-.7-.8-.8.5-1.1.4-.6-.3.4-.6 1.3-.9 2.2-.5 1.1.4 1.2.9.3 1.9-.8 1-.8 1.4 0 1.4 1.1 0 1.5-1.3 1.2-3.9-.2-.7.2-1 .8-.6 1.7 1 1.3-.1-.6-1.6-1.1-1-1.4-1-.9-.1 1 1.8-.3 1.5-2.2-.5-1.6-1.6-1.6-1.6.1-1 1.3.5 1.7.3 1.4-.5-.2-.7.2-2.7.9-4.4 1-2.4 1-3.4.1-4.4-1-1-.9-1.2.4-.7.9.3 1.6 0 1.6-.8 0-.7-.6-1.1-1.3-.8-.7.2-1.7-.4-2.3-1.5-.8-1.5-.7-2.1.3-2.5 1-.4 1.3 0 1.1 1.4-.2 1.1 0 1.7.6 1.4.5-.4.7-1 .4-1.5-.3-.4.1-1.1.7-1.3 1-.4 1-.6.1-.6-.7-.1-1.3-.6-1.3-1.2 0-.5.6-.7 1.3-.3.9.6.9.4 0-.7-1.7-1.7-1.7-3.2 0-2.3.8.5.8.2-.2-.9-1.4-1.8-2.6-2.3-1.6-.8.3.5 0 1.3-.6 1.7-.8.5-.8.8 0 1.4.9.5.8 1-.3 1.9-1.1.9-1.6.9-2.2 0-.4-.8-.3-.9.4-.5s1.2.2 1.2-.3c0-.6-.6-1.1-1.2-1.1-.7 0-.5-.5.5-1.1 1.5-.9 1.6-1.3.5-2.7-1-1.2-1-1.4 0-.8.9.6 1.1.1.8-1.8-.4-2.4.3-3.1 2.7-2.7.5.1.6-.3.2-.9-.4-.6-.1-1.9.7-2.8 1.2-1.5 1.1-1.6-.5-.3-2.5 2-4.6-.1-2.6-2.5 1.2-1.5 1.2-1.6-1-.9-2.1.6-2.2.5-1-.8.9-1 2-1.2 3-.6 1.1.5 1.6.4 1.6-.6 0-.8-.4-1.2-.9-.9-.4.3-.8 0-.8-.5 0-.6.5-1.1 1.2-1.1.6 0 .8-.3.5-.6-.4-.4-1.3-.1-2.2.6-.9.8-1.5.8-1.5.2 0-.6.5-1.4 1-1.7.7-.4.7-1.3 0-2.6-.6-1-.7-1.9-.3-2 .4 0-.1-.5-1.2-1-1.6-.7-1.4-.8 1-.4l3 .6L89 364c-1.9-1.7-3-2.9-2.3-2.6.6.4 1.4.2 1.8-.4.3-.5 0-1-.7-1-.9 0-.9-.3.2-1 .8-.5 2-1 2.5-1 .6 0 .3.5-.5 1s-1.1 1-.6 1c.5 0 .3.6-.3 1.4-.8 1-.9 1.6-.1 2.1.5.3 1 .1 1-.5s.4-.9.8-.6c.4.2.7-.7.6-2.1 0-1.3-.7-2.9-1.5-3.4-1.3-.8-1.2-1 1-1.3.5 0 1.2-.4 1.6-.8.4-.4-.7-.5-2.3-.3-3 .4-3 .3-1.4-1.6 1.8-2 2.7-2.6 1.7-.9-.3.5-.2 1 .2 1 .5 0 1.4-1 2.2-2.3 1.3-1.9 1.2-2.1-.1-1-.8.7-1.8 1-2.1.6-.4-.3-1.4 0-2.4.8-1.5 1.2-1.5 1.1.1-1.3 1.7-2.6 1.5-3.3-.7-2.9-.5.1-.6-.3-.2-.9.3-.6 1.1-.8 1.6-.5 1 .7 1.2-.6.3-2.9-.5-1.4-.9-1.4-2.3-.4-1.4 1.1-1.4 1.1-.3-.4 1.3-1.6 2.8-1.8 4.8-.6.6.4 1.1.1 1.1-.7 0-.8-.3-1.4-.6-1.3-2 .2-2.9-.4-2.7-2 .2-.9-.4-2-1.3-2.5-.9-.4-.3-.5 1.4-.2l3 .6L89 332c-1.9-1.7-3-2.9-2.3-2.6.6.4 1.4.2 1.8-.4.3-.5 0-1-.7-1-.9 0-.9-.3.2-1 .8-.5 2-1 2.5-1 .6 0 .3.5-.5 1s-1.1 1-.6 1c.5 0 .3.6-.3 1.4-.8 1-.9 1.6-.1 2.1.5.3 1 .1 1-.5s.4-.9.8-.6c.4.2.7-.7.6-2.1 0-1.3-.7-2.9-1.5-3.4-1.3-.8-1.2-1 1-1.3.5 0 1.2-.4 1.6-.8.4-.4-.8-.5-2.6-.3-2.2.3-2.9.1-2-.4.7-.5 1.1-1.3.7-1.9-.3-.6-.2-1.3.4-1.7.6-.4.7-1.2.3-1.8-.5-.8-.2-.8.9.1 1.3 1 1.8.9 2.9-.5 1.3-1.6 1.2-1.7-.4-.4-1.8 1.4-2.4.3-.7-1.7.7-.9.7-.9-.2-.2-.7.6-1.9 1-2.7 1-1.1 0-.9-.4.6-1.5 1.4-1 2-2.1 1.6-3.2-.5-1.2-.3-1.4.8-.8 1.2.8 1.2.6 0-.8-1.5-1.8-2.6-2.3-1.6-.7.3.5.1 1-.5 1-.7 0-.9-.7-.6-1.6.3-.9.6-1.8.6-2 0-.3.4-.2 1 .1.6.3.7-.1.4-.9-.3-.9-1-1.6-1.6-1.6-.5 0-.7.4-.4.9.3.5-.1 1.4-.8 2-1 .9-1.6.9-2.1.1-.4-.6-.1-.9.6-.8.7.2 1.4-.3 1.5-1 .1-.6.3-1.5.4-2 .1-.4.2-1.1.1-1.6s.4-.4 1.2.2c1.1 1 1.7.9 2.8-.5 1.3-1.6 1.2-1.7-.3-.4-1.9 1.4-2.5.3-.8-1.7.7-.9.7-.9-.2-.2-.7.6-1.9 1-2.7 1-1.1 0-.9-.4.6-1.5 1.4-1 2-2.1 1.6-3.2-.4-1.1-.3-1.4.5-.9 1.8 1.1 1.4 0-.5-1.5-1.1-1-1.4-1-.9-.2.4.8.2 1.3-.4 1.3-.7 0-.9-.7-.6-1.6.3-.9.6-1.8.6-2 0-.3.4-.2 1 .1.6.3.7-.1.4-1-.4-.8-.1-2.2.5-2.9.8-1 .9-1.6.1-2.1-.5-.3-1-1.1-1-1.6 0-.6.5-.7 1-.4 1.6 1 1.1-.1-.7-1.6-1.1-1-1.4-1-.9-.2.4.7.3 1.3-.2 1.3-.6 0-1.3-.7-1.6-1.6-.3-.9-.2-1.2.4-.9.7.4.9-.3.6-1.9-.4-2.4.2-3.1 2.6-2.7 1 .1.3-2.6-1.2-4.5-1.3-1.6-1.3-1.7.3-1.1.9.3 1.7.2 1.7-.3 0-.6-.7-1-1.5-1s-1.9-1-2.6-2.2c-.9-1.7-.9-2 .3-1.5.8.3 2.1.1 2.9-.4 1-.6 1-.9.2-.9-.7 0-1.3-.5-1.3-1.1 0-.5.4-.8.8-.5.5.3.9-.1.9-.9s-.5-1.1-1-.8c-.7.4-.8-.1-.3-1.2.5-1.5.4-1.6-.9-.5-.9.7-1.8 1-2.2.6-.3-.3-.1-.6.5-.6 1.6 0 1.5-1.7 0-2.3-.7-.2-.2-.2 1.2 0 2.4.4 2.3.3-1-2.7-1.9-1.7-3-2.9-2.3-2.6.6.4 1.4.2 1.8-.4.3-.5 0-1-.7-1-.9 0-.9-.3.2-1 .8-.5 2-1 2.5-1 .6 0 .3.5-.5 1s-1.1 1-.6 1c.5 0 .3.6-.3 1.4-.8 1-.9 1.6-.1 2.1.5.3 1 .1 1-.5s.4-.9.8-.6c.4.2.7-.7.6-2.1 0-1.3-.7-2.9-1.5-3.4-1.3-.8-1.2-1 1-1.3.5 0 1.2-.4 1.6-.8.4-.4-.7-.5-2.4-.3-2.5.3-2.9.2-1.8-.9.6-.8 1.7-1.2 2.3-.9.7.2 1.5-.1 2-.8.4-.8.3-1-.4-.5-.7.4-1.2.2-1.2-.3 0-.6.5-1.1 1.2-1.1.6 0 .8-.3.5-.6-.4-.4-1.3-.1-2.2.6-1.8 1.5-2 0-.2-1.9.6-.8.7-1.1.2-.8-.6.3-1.7.1-2.5-.5-1.2-.8-1.2-.9.3-.4 2 .6 2.1.2.6-2.6-.8-1.5-.8-1.9 0-1.3.8.4 1-.2.7-1.9-.4-2.3.2-3 2.5-2.8.3.1.6-.5.6-1.2 0-.6-1-1.3-2.1-1.4-1.7-.1-1.8.1-.6.8 1.3.8 1.2 1-.2 1-2 0-2.4-1.5-.8-2.5.6-.4.7-1.2.3-1.8-.5-.8-.2-.8.9.1 1.3 1 1.8.9 2.9-.5 1.3-1.6 1.2-1.7-.3-.4-1.9 1.4-2.5.3-.8-1.7.7-.9.7-.9-.2-.2-.7.6-1.9 1-2.7 1-1.1 0-.9-.4.6-1.5 1.4-1 2-2.1 1.6-3.2-.5-1.2-.3-1.4.8-.8 1.2.8 1.2.6 0-.8-1.5-1.8-2.6-2.3-1.6-.7.3.5.1 1-.5 1-.7 0-.9-.7-.6-1.6.3-.9.6-1.8.6-2 0-.3.4-.2 1 .1.6.3.7-.1.4-.9-.3-.9-1-1.6-1.6-1.6-.5 0-.7.4-.4.9.3.5-.1 1.4-.8 2-1 .9-1.6.9-2.1.1-.4-.6-.1-.9.6-.8.7.2 1.4-.3 1.5-1 .1-.6.3-1.5.4-2 .1-.4.2-1.1.1-1.6s.4-.4 1.2.2c1.1 1 1.7.9 2.8-.5 1.3-1.6 1.2-1.7-.4-.4-1.8 1.4-2.4.3-.7-1.7.7-.9.7-.9-.2-.2-.7.5-1.9 1-2.7 1-1.1 0-.9-.4.6-1.5 1.4-1 2-2.1 1.6-3.2-.5-1.2-.3-1.4.8-.8 1.2.8 1.2.6 0-.8-1.5-1.8-2.6-2.3-1.6-.7.3.5.1 1-.5 1-.7 0-.9-.8-.4-2.2.6-2 .5-2.1-.9-1-1.2 1-1.7 1-2.3.1-.4-.7-.3-.9.4-.5.6.3 1.3.2 1.7-.4.3-.5.1-1-.6-1s-.9-.3-.6-.7c.4-.3 1.7.2 2.9 1.3 1.3 1 2 1.5 1.5 1-.4-.5.1-1.9 1-3 1.7-2 1.7-2 0-.7-2.5 2-4.6-.1-2.6-2.5 1.2-1.5 1.2-1.6-1-.9-2.1.6-2.2.5-1-.8.9-1 2-1.2 3-.6 1.1.5 1.6.4 1.6-.6 0-.8-.4-1.2-.9-.9-.4.3-.8 0-.8-.5 0-.6.5-1.1 1.2-1.1.6 0 .8-.3.5-.6-.4-.4-1.3-.1-2.2.6-.9.8-1.5.8-1.5.2 0-.6.5-1.4 1-1.7.7-.4.7-1.3 0-2.6-.6-1-.7-1.9-.3-2 .4 0-.1-.5-1.2-1-1.6-.7-1.4-.8 1-.4l3 .6L89 172c-1.9-1.7-3-2.9-2.3-2.6.6.4 1.4.2 1.8-.4.3-.5 0-1-.7-1-.9 0-.9-.3.2-1 .8-.5 2-1 2.5-1 .6 0 .3.5-.5 1s-1.1 1-.6 1c.5 0 .3.6-.3 1.4-.8 1-.9 1.6-.1 2.1.5.3 1 .1 1-.5s.4-.9.8-.6c.4.2.7-.7.6-2.1 0-1.3-.7-2.9-1.5-3.4-1.3-.8-1.2-1 1-1.3.5 0 1.2-.4 1.6-.8.4-.4-.7-.5-2.3-.3-3 .4-3 .3-1.4-1.6 1.8-2 2.7-2.6 1.7-.9-.3.5-.2 1 .2 1 .5 0 1.4-1 2.2-2.3 1.3-1.9 1.2-2.1-.1-1-.8.7-1.8 1-2.1.6-.4-.3-1.4 0-2.4.8-1.5 1.2-1.5 1.1.1-1.4 1.7-2.5 1.5-3.2-.7-2.8-.5.1-.6-.3-.2-.9.3-.6 1-.8 1.5-.5.4.3 1.1-.2 1.4-1.1.8-2.2.8-2.6-.4-1.9-.5.3-1 .2-1-.3 0-1.6 1.3-2.2 2.5-1.2.8.7 1.2.5 1.2-.4s-.9-1.3-2.4-1.1c-1.8.2-2.1 0-1.2-1.1.6-.8 1.5-1.2 1.9-.9.5.3 1.2 0 1.6-.6.4-.8.3-.9-.4-.5s-1.2.1-1.2-.6c0-.9-.2-1-.8-.2-.5.8-1.1.7-2.2-.4-1.3-1.4-1.2-1.5.3-.9 1.1.4 1.7.2 1.6-.6-.3-1.9 1.2-6.7 2-6.3.4.3.7-.4.7-1.4 0-2.5-1.1-1.7-2.6 2-1.3 3.2-2.4 3.7-3.6 1.8-.4-.7-.3-.8.5-.4 2 1.3 2.4-2.4.5-4.7-1.9-2.2-1.9-2.2.1-.5 2 1.6 2.1 1.6 3.3-.2.8-1.4.9-2.1 0-2.6-.6-.4-.8-.3-.4.4.3.6.2 1.4-.4 1.7-.7.4-1-.5-.8-2.4.1-1.7.7-3.1 1.3-3.1.9-.1-2.4-2.4-3.5-2.5-2.1-.2-2.8-1.8-1.9-4.3.8-2.1.8-2.4-.2-1.5-.9.9-2.1.2-5.5-3.1-2.4-2.4-4.6-4.1-5-3.7-.4.3-.4.1 0-.6.3-.7-.2-1.4-1.3-1.8-1.3-.4-1.8-1.1-1.4-2.2.4-1 .2-1.4-.4-1-1.1.7-4.2-2.6-4.6-5.1-.1-.9-.6-1.8-1-2-1.7-.5-1.9-.1-.6 1.5 1.3 1.6 1.2 1.7-.3.5-1-.8-2-2.2-2.3-3.3-.4-1-1.3-1.9-2.1-1.9s-1.4-.7-1.4-1.6c0-.8-.5-1.2-1-.9-.6.3-1-.1-1-1s-.4-1.4-.9-1c-.5.3-1.2-.4-1.6-1.5-.3-1.1-1.2-2-1.9-2-1.7 0-6-5-4.3-5.1.6-.1.1-.4-1.3-.8-1.5-.5-2.4-1.4-2.4-2.5.2-1.4-.1-1.5-1.4-.4-.9.7-1.3.8-1.1.3.7-1.2-7.8-9.4-8.8-8.6-.4.3-.1-.3.7-1.3 1.3-1.7 1.3-1.8.1-1.1-1.1.6-1.3.4-.7-1 .5-1.5.4-1.6-.9-.5-1.4 1.1-1.9.7-1.6-1.3 0-.4-.2-.6-.7-.5-2 .4-4-1.5-3.8-3.6.2-1.8-.1-2.2-1.6-1.8-1 .2-1.8-.1-1.8-.7s-.5-1.1-1-1.1c-.6 0-3-1.8-5.2-4-4.7-4.5-5.3-4.7-6.4-2.3zm78.5 74.6c-.2.1-1.2.9-2.2 1.6-1.5 1.2-1.7 1.2-1.1-.3.3-.9 1.3-1.6 2.2-1.6.8 0 1.3.1 1.1.3zM89 179c0 .5-.2 1-.4 1-.3 0-.8-.5-1.1-1-.3-.6-.1-1 .4-1 .6 0 1.1.4 1.1 1zm.9 19.9c.7.5.9 1.1.5 1.4-.5.3-1.5-.1-2.2-.9-1.4-1.6-.5-1.8 1.7-.5zm0 16c.7.5.9 1.1.5 1.4-.5.3-1.5-.1-2.2-.9-1.4-1.6-.5-1.8 1.7-.5zm1.1 44.5c0 .2-.7.9-1.5 1.6-1.3 1.1-1.4 1-.9-.4.5-1.4 2.4-2.3 2.4-1.2zm-2.2 9.1c-.3.3-.9-.2-1.2-1.2-.6-1.4-.5-1.5.5-.6.7.7 1 1.5.7 1.8zm2.7 2.5c1 1.6-2.5 2.4-3.8 1-.9-1-.9-1.1.1-.6.6.4 1.2.2 1.2-.3 0-1.4 1.7-1.4 2.5-.1zm-1.4 12.1c1.9 1 1.8 2.9-.2 2.9-.6 0-.8-.4-.4-.9.3-.6-.3-1.4-1.2-2-2.4-1.4-.7-1.4 1.8 0zm-.1 4.8c0 1.6-2.8 3.3-3.5 2.1-.4-.6-.1-.9.7-.8.7.2 1.2-.3 1.1-1-.2-.6.2-1.2.7-1.2.6 0 1 .4 1 .9zm-.1 7c.7.5.9 1.1.5 1.4-.5.3-1.5-.1-2.2-.9-1.4-1.6-.5-1.8 1.7-.5zm0 16c.7.5.9 1.1.5 1.4-.5.3-1.5-.1-2.2-.9-1.4-1.6-.5-1.8 1.7-.5zM89 371c0 .5-.2 1-.4 1-.3 0-.8-.5-1.1-1-.3-.6-.1-1 .4-1 .6 0 1.1.4 1.1 1zm1 13c1.3.8 1.3 1-.2 1-.9 0-2-.5-2.3-1-.8-1.3.5-1.3 2.5 0zm-1.2 20.5c-.3.3-.9-.2-1.2-1.2-.6-1.4-.5-1.5.5-.6.7.7 1 1.5.7 1.8zm.7 4.5c-.9 1.6-1.7 3-1.9 3-.3 0 .1-1.4.7-3 .6-1.7 1.5-3 1.9-3 .5 0 .2 1.3-.7 3zM70 443.4c0 .2-.8 1-1.7 1.7-1.6 1.3-1.7 1.2-.4-.4 1.3-1.6 2.1-2.1 2.1-1.3zm-31.6 4.4c.2.4-.5.9-1.7.9-1.7.2-1.9 0-.7-.7 1.8-1.2 1.8-1.2 2.4-.2zm27.2 2c-1 1-4.5 1.2-5 .3-.3-.4.8-.8 2.5-.9 1.7 0 2.8.2 2.5.6zM480.3 56.2c-5.6 5.4-50.4 50.3-63.3 63.4-.2.3-.5 3.2-.6 6.5-.1 3.3-.4 6.2-.7 6.6-.3.3-.2 1.5.3 2.7.4 1.3.4 2.9-.1 3.9-.6.9-.6 1.7-.1 1.7.9 0 .8 5.3-.3 6.9-.3.6-.2 1.1.2 1.1 1 0 .9 5.3-.2 6.9-.3.6-.2 1.1.3 1.1.6 0 .7 1.4.2 3.4-.4 1.9-.4 4 .1 4.7.4.7.4 2-.1 2.9-.5.9-.5 2.2 0 3 .5.8.5 2.1 0 3-.5.9-.5 2.2 0 3 .5.8.5 2.1 0 3-.5.9-.5 2.2 0 3 .5.8.5 2.1 0 3-.5.9-.5 2.2 0 3 .5.8.5 2.1 0 3-.5.9-.5 2.2 0 3 .5.8.5 2.1 0 3-.5.9-.5 2.2 0 3 .5.8.5 2.1 0 3-.5.9-.5 2.2 0 3 .5.8.5 2.1 0 3.1-.5.9-.7 1.9-.3 2.2.9 1 1 8.7 0 8.7-.4 0-.5.6 0 1.2 1.1 1.8 1.1 3 .1 5-.5 1-.5 1.8 0 1.8.9 0 .8 5.3-.3 6.9-.3.6-.2 1.1.2 1.1 1 0 .9 5.3-.2 6.9-.3.6-.2 1.1.2 1.1 1 0 .9 5.3-.2 6.9-.3.6-.2 1.1.2 1.1 1 0 .9 5.3-.2 6.9-.3.6-.2 1.1.2 1.1 1 0 .9 5.3-.2 6.9-.3.6-.2 1.1.2 1.1 1 0 .9 5.3-.2 6.9-.3.6-.2 1.1.2 1.1 1 0 .9 5.3-.2 6.9-.3.6-.2 1.1.3 1.1.6 0 .7 1.4.2 3.4-.4 1.9-.4 4 .1 4.7.4.7.4 2-.1 2.9-.5.9-.5 2.2 0 3 .5.8.5 2.1 0 3-.5.9-.5 2.2 0 3 .5.8.5 2.1 0 3-.5.9-.5 2.2 0 3 .5.8.5 2.1 0 3-.5.9-.5 2.2 0 3 .5.8.5 2.1 0 3-.5.9-.5 2.2 0 3 .5.8.5 2.1 0 3-.5.9-.5 2.2 0 3 .5.8.5 2.1 0 3-.5.9-.5 2.2 0 3 .5.8.5 2.1 0 3.1-.5.9-.7 1.9-.3 2.2.9 1 1 8.7 0 8.7-.4 0-.5.6 0 1.2 1.1 1.8 1.1 3 .1 5-.5 1-.5 1.8 0 1.8.9 0 .8 5.3-.3 6.9-.3.6-.2 1.1.2 1.1 1 0 .9 5.3-.2 6.9-.3.6-.2 1.1.2 1.1 1 0 .9 5.3-.2 6.9-.3.6-.2 1.1.2 1.1 1 0 .9 5.3-.2 6.9-.3.6-.2 1.1.2 1.1 1 0 .9 5.3-.2 6.9-.3.6-.2 1.1.2 1.1 1 0 .9 5.3-.2 6.9-.3.6-.2 1.1.2 1.1 1 0 .9 5.3-.2 6.9-.3.6-.2 1.1.3 1.1.6 0 .7 1.4.2 3.4-.4 1.9-.4 4 .1 4.7.4.7.4 2-.1 2.9-.5.9-.5 2.2 0 3 .5.8.5 2.1 0 3-.5.9-.5 2.2 0 3 .5.8.5 2.1 0 3.1-.5.9-.7 1.9-.4 2.1.2.3.7 1.5.9 2.8.5 2.7 2.4 5.2 3.5 4.5.5-.3 1.6.5 2.4 1.7 1.1 1.5 1.6 1.8 1.6.8 0-1.2.2-1.3.9-.1.7 1.1.9 1.1 1.4 0 .3-.8.4 0 .2 1.7-.2 2.1.1 3.1 1.1 3.1s1.1-.4.3-1.4c-1.4-1.6-.5-1.7 2.4-.1 1.9 1 2 .9 1-.3s-.8-1.5.7-1.5c1 0 1.6.4 1.4.8-.3.4.2.8 1.1.8 1 0 1.3-.5.9-1.3-.6-.9-.5-.9.7 0 1.5 1.2 1.8 1.3 5 1.3 1.3 0 1.8.4 1.3 1.2-.5.7-.3.8.5.4.7-.5 1-1.4.7-2.1-.5-1.4 1.1-1.5 3.2-.1.8.5 1.8.4 2.5-.3.8-.8.6-1.1-.9-1.2-1.1 0-1.4-.3-.6-.6 1.6-.6 4.4 1.6 3.6 2.8-.3.5-1 .7-1.5.4-.5-.4-.9-.2-.9.4 0 .5.9.9 1.9.8 1.1 0 1.7-.5 1.5-.9-.3-.4 0-.8.6-.8s.8-.5.5-1c-.3-.6-.1-1 .5-1 .7 0 1 .7.6 1.5-.3.8-.1 1.5.5 1.5s.7.6.3 1.2c-.5.8 0 .7 1.1-.2 1-.8 1.9-1.3 2.1-1 .1.3.6.2 1-.2.3-.4-.3-.6-1.5-.3-1.1.2-2.1 0-2.1-.6 0-1.2 3.4-.6 5.2.9.8.6 1.8.9 2.2.5.4-.4 1.1-.1 1.6.7.6 1 1 1.1 1 .3 0-1.5-3.5-3.5-4.4-2.5-.4.3-.4-.1-.1-1.1.6-1.4.9-1.5 2.2-.2 1.5 1.5 4.8 2.1 3.9.7-.2-.4.4-.9 1.5-.9 1-.1 1.9.3 1.9.8 0 .6-.4.7-1 .4-.6-.4-.7.1-.3 1.1.5 1.4.8 1.3 2-.7l1.4-2.4-.5 2.5c-.4 2.2-.4 2.3.8.8 1.4-2 2.8-1.4 1.9.8-.3.8 0 1.4.5 1.4 1.1 0 .9-2.9-.3-5.3-.4-.6.1-.3 1 .8 1.2 1.5 2 1.7 3.3.9.9-.5 2.6-1 3.7-.9 1.1 0 2.3-.4 2.6-.8.3-.5 1.4.7 2.3 2.5l1.7 3.3-.5-3.5c-.4-3.2-.4-3.4 1-1.6 1.3 1.8 1.9 1.5 1.5-.7-.1-.4.8-.3 2 .3 1.1.7 2.3.9 2.7.6.3-.3 0-.6-.6-.6-.7 0-1.2-.7-1.2-1.5s.5-1.5 1.1-1.5c.5 0 .7.4.4 1-.3.6.1.7 1 .3 1.3-.5 1.4-.7.3-1.4-.7-.5-.9-.9-.5-.9s.3-.9-.3-2c-.9-1.7-.8-2 .7-2s1.5-.2.3-.9c-.8-.6-1.9-.7-2.5-.4-.5.3-.4 0 .3-.8 1.4-1.5 1.7-4.3.3-3.5-.5.3-1.1-.1-1.4-.9-.4-.9-.1-1.2.9-.8 2 .7 1.4-1.9-.6-2.9-1.1-.6-1-.7.4-.5 1.4.1 2 1 2.1 3 .3 5.1 1.2 3.8 1-1.5-.1-3.9.3-5.5 1.4-6 1.2-.6 1.1-.7-.4-.5-1.1.1-2 .9-2 1.6 0 .8-.7 1.6-1.5 1.8-1.3.4-1.3.3 0-.6 1.4-1 .7-1.6-1.3-1.2-.5.1-.6-.3-.2-.9.3-.6 1.1-.8 1.6-.5 1 .7.7-2.4-.4-4.3-.5-.6-.5-1.2 0-1.2.4 0 .1-.5-.7-1-1.2-.8-1.2-1-.1-1 1.1 0 1.1-.3 0-1.8s-1.1-1.5.1-.4c.8.7 1.5 2.3 1.5 3.4 0 1.2.7 2.3 1.5 2.5.9.3 1.1.1.5-.4-1.2-1-1.8-6.6-.6-5.9.4.3.7-.7.6-2.2-.1-1.6.5-3 1.4-3.4 1.2-.6 1.1-.7-.4-.5-1.3.1-2 1-2 2.5 0 1.2-.3 2.2-.7 2.2h-1.4c-.4 0-.1-.6.5-1.4 1-1.1.8-1.5-.6-1.9-1.5-.4-1.5-.5-.2-.6.9 0 1.9-1 2.2-2 .4-1.5 0-1.9-1.4-1.6-1.1.2-1.7 0-1.4-.6.4-.5 1.1-.7 1.7-.3 1.3.8.7-3.8-.7-4.9-.6-.5-.4-.7.4-.5.8.2 1.5 1.2 1.7 2.2.6 3.9 1.1 2.4.9-2.6-.1-3.9.3-5.5 1.4-6 1.2-.6 1.1-.7-.4-.5-1.1.1-2 .9-2 1.6 0 .8-.7 1.6-1.5 1.8-1.3.4-1.3.3 0-.6 1.4-1 .7-1.6-1.3-1.2-.5.1-.6-.3-.2-.9.3-.6 1.1-.8 1.6-.5 1 .7.7-2.4-.4-4.3-.5-.6-.5-1.2 0-1.2.4 0 .1-.5-.7-1-1.2-.8-1.2-1-.1-1 1.1 0 1.1-.3 0-1.8s-1.1-1.5.1-.4c.8.7 1.5 2.3 1.5 3.4 0 1.2.7 2.3 1.5 2.5.9.3 1.1.1.5-.4-1.2-1-1.8-6.6-.6-5.9.4.3.7-.7.6-2.2-.1-1.6.5-3 1.4-3.4 1.2-.6 1.1-.7-.4-.5-1.3.1-2 1-2 2.5 0 1.2-.3 2.2-.7 2.2h-1.4c-.4 0-.1-.6.5-1.4 1-1.1.8-1.5-.6-1.9-1.5-.4-1.5-.5-.2-.6.9 0 1.9-1 2.2-2 .4-1.5 0-1.9-1.4-1.6-1.1.2-1.7 0-1.4-.6.4-.5 1.1-.7 1.7-.3 1.3.8.7-3.8-.7-4.9-.6-.5-.4-.7.4-.5.8.2 1.5 1.2 1.7 2.2.6 3.9 1.1 2.4.9-2.6-.1-3.9.3-5.5 1.4-6 1.2-.6 1.1-.7-.4-.5-1.1.1-2 .9-2 1.6 0 .8-.7 1.6-1.5 1.8-1.3.4-1.3.3 0-.6 1.4-1 .7-1.6-1.3-1.2-.5.1-.6-.3-.2-.9.3-.6 1.1-.8 1.6-.5 1 .7.7-2.4-.4-4.3-.5-.6-.5-1.2 0-1.2.4 0 .1-.5-.7-1-1.2-.8-1.2-1-.1-1 1.1 0 1.1-.3 0-1.8s-1.1-1.5.1-.4c.8.7 1.5 2.3 1.5 3.4 0 1.2.7 2.3 1.5 2.5.9.3 1.1.1.5-.4-1.2-1-1.8-6.6-.6-5.9.4.3.7-.7.6-2.2-.1-1.6.5-3 1.4-3.4 1.2-.6 1.1-.7-.4-.5-1.3.1-2 1-2 2.5 0 1.2-.3 2.2-.7 2.2h-1.4c-.4 0-.1-.6.5-1.4 1-1.1.8-1.5-.6-1.9-1.5-.4-1.5-.5-.2-.6.9 0 1.9-1 2.2-2 .4-1.5 0-1.9-1.4-1.6-1.1.2-1.7 0-1.4-.6.4-.5 1.1-.7 1.7-.3 1.3.8.7-3.8-.7-4.9-.6-.5-.4-.7.4-.5.8.2 1.5 1.2 1.7 2.2.6 3.9 1.1 2.4.9-2.6-.1-3.9.3-5.5 1.4-6 1.2-.6 1.1-.7-.4-.5-1.1.1-2 .9-2 1.6 0 .8-.7 1.6-1.5 1.8-1.3.4-1.3.3 0-.6 1.4-1 .7-1.6-1.3-1.2-.5.1-.6-.3-.2-.9.3-.6 1.1-.8 1.6-.5 1 .7.7-2.4-.4-4.3-.5-.6-.5-1.2 0-1.2.4 0 .1-.5-.7-1-1.2-.8-1.2-1-.1-1 1.1 0 1.1-.3 0-1.8s-1.1-1.5.1-.4c.8.7 1.5 2.3 1.5 3.4 0 1.2.7 2.3 1.5 2.5.9.3 1.1.1.5-.4-1.2-1-1.8-6.6-.6-5.9.4.3.7-.7.6-2.2-.1-1.6.5-3 1.4-3.4 1.2-.6 1.1-.7-.4-.5-1.3.1-2 1-2 2.5 0 1.2-.3 2.2-.7 2.2h-1.4c-.4 0-.1-.6.5-1.4 1-1.1.8-1.5-.6-1.9-1.5-.4-1.5-.5-.2-.6.9 0 1.9-1 2.2-2 .4-1.5 0-1.9-1.4-1.6-1.1.2-1.7 0-1.4-.6.4-.5 1.1-.7 1.7-.3 1.3.8.7-3.8-.7-4.9-.6-.5-.4-.7.4-.5.8.2 1.5 1.2 1.7 2.2.6 3.9 1.1 2.4.9-2.6-.1-3.9.3-5.5 1.4-6 1.2-.6 1.1-.7-.4-.5-1.1.1-2 .9-2 1.6 0 .8-.7 1.6-1.5 1.8-1.3.4-1.3.3 0-.6 1.4-1 .7-1.6-1.3-1.2-.5.1-.6-.3-.2-.9.3-.6 1.1-.8 1.6-.5 1 .7.7-2.4-.4-4.3-.5-.6-.5-1.2 0-1.2.4 0 .1-.5-.7-1-1.2-.8-1.2-1-.1-1 1.1 0 1.1-.3 0-1.8s-1.1-1.5.1-.4c.8.7 1.5 2.3 1.5 3.4 0 1.2.7 2.3 1.5 2.5.9.3 1.1.1.5-.4-1.2-1-1.8-6.6-.6-5.9.4.3.7-.7.6-2.2-.1-1.6.5-3 1.4-3.4 1.2-.6 1.1-.7-.4-.5-1.3.1-2 1-2 2.5 0 1.2-.3 2.2-.7 2.2h-1.4c-.4 0-.1-.6.5-1.4 1-1.1.8-1.5-.6-1.9-1.5-.4-1.5-.5-.2-.6.9 0 1.9-1 2.2-2 .4-1.5 0-1.9-1.4-1.6-1.1.2-1.7 0-1.4-.6.4-.5 1.1-.7 1.7-.3 1.3.8.7-3.8-.7-4.9-.6-.5-.4-.7.4-.5.8.2 1.5 1.2 1.7 2.2.6 3.9 1.1 2.4.9-2.6-.1-3.9.3-5.5 1.4-6 1.2-.6 1.1-.7-.4-.5-1.1.1-2 .9-2 1.6 0 .8-.7 1.6-1.5 1.8-1.3.4-1.3.3 0-.6 1.4-1 .7-1.6-1.3-1.2-.5.1-.6-.3-.2-.9.3-.6 1.1-.8 1.6-.5 1 .7.7-2.4-.4-4.3-.5-.6-.5-1.2 0-1.2.4 0 .1-.5-.7-1-1.2-.8-1.2-1-.1-1 1.1 0 1.1-.3 0-1.8s-1.1-1.5.1-.4c.8.7 1.5 2.3 1.5 3.4 0 1.2.7 2.3 1.5 2.5.9.3 1.1.1.5-.4-1.2-1-1.8-6.6-.6-5.9.4.3.7-.7.6-2.2-.1-1.6.5-3 1.4-3.4 1.2-.6 1.1-.7-.4-.5-1.3.1-2 1-2 2.5 0 1.2-.3 2.2-.7 2.2h-1.4c-.4 0-.1-.6.5-1.4 1-1.1.8-1.5-.6-1.9-1.5-.4-1.5-.5-.2-.6.9 0 1.9-1 2.2-2 .4-1.5 0-1.9-1.4-1.6-1.1.2-1.7 0-1.4-.6.4-.5 1.1-.7 1.7-.3 1.3.8.7-3.8-.7-4.9-.6-.5-.4-.7.4-.5.8.2 1.5 1.2 1.7 2.2.6 3.9 1.1 2.4.9-2.6-.1-3.9.3-5.5 1.4-6 1.2-.6 1.1-.7-.4-.5-1.1.1-2 .9-2 1.6 0 .8-.7 1.6-1.5 1.8-1.3.4-1.3.3 0-.6 1.4-1 .7-1.6-1.3-1.2-.5.1-.6-.3-.2-.9.3-.6 1.1-.8 1.6-.5 1 .7.7-2.4-.4-4.3-.5-.6-.5-1.2 0-1.2.4 0 .1-.5-.7-1-1.2-.8-1.2-1-.1-1 1.1 0 1.1-.3 0-1.8s-1.1-1.5.1-.4c.8.7 1.5 2.3 1.5 3.4 0 1.2.7 2.3 1.5 2.5.9.3 1.1.1.5-.4-1.2-1-1.8-6.6-.6-5.9.4.3.7-.7.6-2.2-.1-1.6.5-3 1.4-3.4 1.2-.6 1.1-.7-.4-.5-1.3.1-2 1-2 2.5 0 1.2-.3 2.2-.7 2.2h-1.4c-.4 0-.1-.6.5-1.4 1-1.1.8-1.5-.6-1.9-1.5-.4-1.5-.5-.2-.6.9 0 1.9-1 2.2-2 .4-1.5 0-1.9-1.4-1.6-1.1.2-1.7 0-1.4-.6.4-.5 1.1-.7 1.7-.3 1.3.8.7-3.8-.7-4.9-.6-.5-.4-.7.4-.5.8.2 1.5 1.2 1.7 2.2.6 3.9 1.1 2.4.9-2.6-.1-3.9.3-5.5 1.4-6 1.2-.6 1.1-.7-.4-.5-1.1.1-2 .9-2 1.6 0 .8-.7 1.6-1.5 1.8-1.3.4-1.3.3 0-.6 1.4-1 .7-1.6-1.3-1.2-.5.1-.6-.3-.2-.9.3-.6 1.1-.8 1.6-.5 1 .7.7-2.4-.4-4.3-.5-.6-.5-1.2 0-1.2.4 0 .1-.5-.7-1-1.2-.8-1.2-1-.1-1 1.1 0 1.1-.3 0-1.8s-1.1-1.5.1-.4c.8.7 1.5 2.3 1.5 3.4 0 1.2.7 2.3 1.5 2.5.9.3 1.1.1.5-.4-1.2-1-1.8-6.6-.6-5.9.4.3.7-.7.6-2.2-.1-1.6.5-3 1.4-3.4 1.2-.6 1.1-.7-.4-.5-1.3.1-2 1-2 2.5 0 1.2-.3 2.2-.7 2.2h-1.4c-.4 0-.1-.6.5-1.4 1-1.1.8-1.5-.6-1.9-1.5-.4-1.5-.5-.2-.6.9 0 1.9-1 2.2-2 .4-1.5 0-1.9-1.4-1.6-1.1.2-1.7 0-1.4-.6.4-.5 1.1-.7 1.7-.3 1.3.8.7-3.8-.7-4.9-.6-.5-.4-.7.4-.5.8.2 1.5 1.2 1.7 2.2.6 3.9 1.1 2.4.9-2.6-.1-3.9.3-5.5 1.4-6 1.2-.6 1.1-.7-.4-.5-1.1.1-2 .9-2 1.6 0 .8-.7 1.6-1.5 1.8-1.3.4-1.3.3 0-.6 1.4-1 .7-1.6-1.3-1.2-.5.1-.6-.3-.2-.9.3-.6 1.1-.8 1.6-.5 1 .7.7-2.4-.4-4.3-.5-.6-.5-1.2 0-1.2.4 0 .1-.5-.7-1-1.2-.8-1.2-1-.1-1 1.1 0 1.1-.3 0-1.8s-1.1-1.5.1-.4c.8.7 1.5 2.3 1.5 3.4 0 1.2.7 2.3 1.5 2.5.9.3 1.1.1.5-.4-1.2-1-1.8-6.6-.6-5.9.4.3.7-.7.6-2.2-.1-1.6.5-3 1.4-3.4 1.2-.6 1.1-.7-.4-.5-1.3.1-2 1-2 2.5 0 1.2-.3 2.2-.7 2.2h-1.4c-.4 0-.1-.6.5-1.4 1-1.1.8-1.5-.6-1.9-1.5-.4-1.5-.5-.2-.6.9 0 1.9-1 2.2-2 .4-1.5 0-1.9-1.4-1.6-1.1.2-1.7 0-1.4-.6.4-.5 1.1-.7 1.7-.3 1.3.8.7-3.8-.7-4.9-.6-.5-.4-.7.4-.5.8.2 1.5 1.2 1.7 2.2.6 3.9 1.1 2.4.9-2.6-.1-3.9.3-5.5 1.4-6 1.2-.6 1.1-.7-.4-.5-1.1.1-2 .9-2 1.6 0 .8-.7 1.6-1.5 1.8-1.3.4-1.3.3 0-.6 1.4-1 .7-1.6-1.3-1.2-.5.1-.6-.3-.2-.9.3-.6 1.1-.8 1.6-.5 1 .7.7-2.4-.4-4.3-.5-.6-.5-1.2 0-1.2.4 0 .1-.5-.7-1-1.2-.8-1.2-1-.1-1 1.1 0 1.1-.3 0-1.8s-1.1-1.5.1-.4c.8.7 1.5 2.3 1.5 3.4 0 1.2.7 2.3 1.5 2.5.9.3 1.1.1.5-.4-1.2-1-1.8-6.6-.6-5.9.4.3.7-.7.6-2.2-.1-1.6.5-3 1.4-3.4 1.2-.6 1.1-.7-.4-.5-1.3.1-2 1-2 2.5 0 1.2-.3 2.2-.7 2.2h-1.4c-.4 0-.1-.6.5-1.4 1-1.1.8-1.5-.6-1.9-1.5-.4-1.5-.5-.2-.6.9 0 1.9-1 2.2-2 .4-1.5 0-1.9-1.4-1.6-1.1.2-1.7 0-1.4-.6.4-.5 1.1-.7 1.7-.3 1.3.8.7-3.8-.7-4.9-.6-.5-.4-.7.4-.5.8.2 1.5 1.2 1.7 2.2.6 3.9 1.1 2.4.9-2.6-.1-3.9.3-5.5 1.4-6 1.2-.6 1.1-.7-.4-.5-1.1.1-2 .9-2 1.6 0 .8-.7 1.6-1.5 1.8-1.3.4-1.3.3 0-.6 1.4-1 .7-1.6-1.3-1.2-.5.1-.6-.3-.2-.9.3-.6 1.1-.8 1.6-.5 1 .7.7-2.4-.4-4.3-.5-.6-.5-1.2 0-1.2.4 0 .1-.5-.7-1-1.2-.8-1.2-1-.1-1 1.1 0 1.1-.3 0-1.8s-1.1-1.5.1-.4c.8.7 1.5 2.3 1.5 3.4 0 1.2.7 2.3 1.5 2.5.9.3 1.1.1.5-.4-1.2-1-1.8-6.6-.6-5.9.4.3.7-.7.6-2.2-.1-1.6.5-3 1.4-3.4 1.2-.6 1.1-.7-.4-.5-1.3.1-2 1-2 2.5 0 1.2-.3 2.2-.7 2.2h-1.4c-.4 0-.1-.6.5-1.4 1-1.1.8-1.5-.6-1.9-1.5-.4-1.5-.5-.2-.6.9 0 1.9-1 2.2-2 .4-1.5 0-1.9-1.4-1.6-1.1.2-1.7 0-1.4-.6.4-.5 1.1-.7 1.7-.3 1.3.8.7-3.8-.7-4.9-.6-.5-.4-.7.4-.5.8.2 1.5 1.2 1.7 2.2.6 3.9 1.1 2.4.9-2.6-.1-3.9.3-5.5 1.4-6 1.2-.6 1.1-.7-.4-.5-1.1.1-2 .9-2 1.6 0 .8-.7 1.6-1.5 1.8-1.3.4-1.3.3 0-.6 1.4-1 .7-1.6-1.3-1.2-.5.1-.6-.3-.2-.9.3-.6 1.1-.8 1.6-.5.5.4.9-.3.9-1.4 0-1.1-.4-2.3-1-2.6-.5-.3-1-1-1-1.6 0-.5.5-.9 1-.9.6 0 .9.5.8 1.1-.2.6.4 1.4 1.2 1.6 1.2.4 1.2.3.1-.5-.9-.7-1-1.2-.2-1.6 1.5-1 .4-2.7-1.3-2-1.5.6-1.7-5.2-.2-7.6.5-.8.6-1.2.1-.8-.4.4-1.5.2-2.4-.5-1.4-1.1-1.4-1-.2.5 1.1 1.5 1.1 1.8-.2 1.8-1 0-1.4-.9-1.2-2.9.3-3.1-.1-3.9-2.7-5.9-1.5-1.2-2.6-.5-9.5 6zm17.4 22.2c0 .8-.8 1.1-2.1.8-1.9-.5-1.9-.6 0-1.3 1-.4 1.9-.8 2-.8 0-.1.1.5.1 1.3zm0 32c0 .8-.8 1.1-2.1.8-1.9-.5-1.9-.6 0-1.3 1-.4 1.9-.8 2-.8 0-.1.1.5.1 1.3zm0 32c0 .8-.8 1.1-2.1.8-1.9-.5-1.9-.6 0-1.3 1-.4 1.9-.8 2-.8 0-.1.1.5.1 1.3zm0 32c0 .8-.8 1.1-2.1.8-1.9-.5-1.9-.6 0-1.3 1-.4 1.9-.8 2-.8 0-.1.1.5.1 1.3zm0 32c0 .8-.8 1.1-2.1.8-1.9-.5-1.9-.6 0-1.3 1-.4 1.9-.8 2-.8 0-.1.1.5.1 1.3zm0 32c0 .8-.8 1.1-2.1.8-1.9-.5-1.9-.6 0-1.3 1-.4 1.9-.8 2-.8 0-.1.1.5.1 1.3zm0 32c0 .8-.8 1.1-2.1.8-1.9-.5-1.9-.6 0-1.3 1-.4 1.9-.8 2-.8 0-.1.1.5.1 1.3zm0 32c0 .8-.8 1.1-2.1.8-1.9-.5-1.9-.6 0-1.3 1-.4 1.9-.8 2-.8 0-.1.1.5.1 1.3zm0 32c0 .8-.8 1.1-2.1.8-1.9-.5-1.9-.6 0-1.3 1-.4 1.9-.8 2-.8 0-.1.1.5.1 1.3zm0 32c0 .8-.8 1.1-2.1.8-1.9-.5-1.9-.6 0-1.3 1-.4 1.9-.8 2-.8 0-.1.1.5.1 1.3zm0 32c0 .8-.8 1.1-2.1.8-1.9-.5-1.9-.6 0-1.3 1-.4 1.9-.8 2-.8 0-.1.1.5.1 1.3zm-1.2 45.6c.3.5.1 1-.4 1-.6 0-1.1-.5-1.1-1 0-.6.2-1 .4-1 .3 0 .8.4 1.1 1zm-58 4c.3.5.1 1-.4 1-.6 0-1.1-.5-1.1-1 0-.6.2-1 .4-1 .3 0 .8.4 1.1 1z"/><path d="M496.5 60c-.3.5-.1 1 .6 1 .8 0 .7.5-.2 1.7-.8 1-.9 1.4-.2 1 .6-.4 1.4-.3 1.8.3.3.5 1.2 1 1.8 1 .7 0 .4-.5-.5-1-1-.6-1.5-1.9-1.3-3 .4-2.1-.9-2.7-2-1zM29 62c-.9.6-1 1-.3 1 .6 0 1.5-.5 1.8-1 .8-1.2.4-1.2-1.5 0zM50 83.9c0 .5.7 1.2 1.6 1.5 1.4.5 1.5.4.4-.9-1.4-1.7-2-1.9-2-.6zM73.7 105.7c-.4.3-.7 1.1-.7 1.7 0 .6.5.5 1.2-.2.6-.6.9-1.4.7-1.7-.3-.3-.9-.2-1.2.2zM81.6 114.2c.3.5 1 .6 1.5.3 1.3-.9 1.1-1.2-.6-1.2-.8 0-1.2.4-.9.9zM195 121c0 .3-2 .4-4.5.3-2.5 0-4.5.3-4.5.9 0 .5-.4.7-.9.4-.5-.4-.7.3-.4 1.5.4 1.2 1.1 1.8 2 1.5.8-.3 1.1-.2.8.4-.3.5.4 1.8 1.6 2.9 1.2 1.1 1.8 2.4 1.4 3-.3.7-.3 1.1.2 1 2.1-.4 2.4.2 1.2 1.8-1.1 1.5-1 1.4.9-.1 2.2-1.9 2.2-1.9 2.2.5 0 1.9.2 2.1 1 .9.8-1.2 1-1.1 1 .6 0 1.1.9 2.9 2 3.9s2 1.5 2 1c0-.4.7-.2 1.5.5.9.7 1.4 1.9 1.1 2.7-.4.8-.1 1.1.5.8 1.2-.8 4.9 2.3 4.9 4.2 0 .7.7 1.3 1.6 1.3 1 0 1.4.5 1 1.6-.3.8-.2 1.2.4.9.6-.3 1-.1 1 .4 0 .6.7 1.1 1.5 1.1s1.5.4 1.5.8c0 .5 1.1 1.5 2.5 2.2 1.3.7 2.2 1.6 2 2-.3.5.3 1.1 1.2 1.4 1.5.6 1.5.8.3 1.6-.8.6-1 1-.5 1 .6 0 1.7-.6 2.4-1.3.7-.6 1.2-.8 1.1-.2-.5 2.4.1 3.7 1.4 3.2 1.1-.4 1.3.1 1 2.1-.5 2.6-.5 2.6 1 .7 1.5-1.9 1.6-1.9.9-.1-.5 1.5-.3 1.7.7 1.1 1-.6 1.2-.4.7.8-.4 1.1-.2 1.4.7 1.1.8-.3 1.7 0 2.2.7.4.7.3 1-.4.5-.6-.3-1.4-.2-1.7.4-.4.6-.3.9.2.8.4-.1 1.8.2 3.1.6 1.9.6 2.1 1 1.1 2.2-1 1.2-.9 1.3.6.8 1.3-.5 1.6-.4 1.1.5-.4.6-.4 1.1.1 1 2.5-.4 3.5.3 3 2-.3 1.4-.1 1.8.9 1.4.8-.3 1.4 0 1.4.7 0 .6.5.8 1.3.4.9-.6.9-.4-.1.8-1 1.3-1 1.8-.1 2.4.8.4.9.3.5-.4s-.3-1.2.2-1.2c.6 0 1.3.7 1.6 1.6.3.8 1 1.2 1.6.9.5-.3 1-.2 1 .4 0 .5-.5 1.1-1.2 1.3-.7.3-.5.7.6 1.1.9.4 1.5.3 1.2-.2-.3-.5.1-1.1.9-1.5.8-.3 1.7 0 2.1.6.4.7.3.8-.4.4-1.8-1.1-1.4.3.5 2.2 1.6 1.6 1.6 1.6 1-.1-.3-.9-.2-1.7.3-1.7s.7-.8.4-1.8c-.5-1.4-.4-1.5.5-.2s1.1 1.3 1.1 0 .1-1.3 1 0c.9 1.4 1.4.7 1.1-1.3-.1-.5.3-.6.8-.3.5.4 1.1.3 1.4-.1.2-.5.3-.3.2.2-.2.6.3 1.6 1.1 2.2 1.1 1.1 1.2.8.9-1.7-.2-1.6-.6-3.4-1-4-.3-.5 0-.7.9-.4.8.3 1.3 1.4 1.1 2.5-.5 2.5 1.1 2.5 1.8 0 .5-2.2-.2-3.5-2.3-4.5-.8-.3-.2-.4 1.4-.1 2.5.5 2.8.4 2.3-1.5-.3-1.2-.3-1.9 0-1.6.3.3 1.5.1 2.7-.5 2-.9 2-.9.3.4-1 .8-1.9 2.4-2 3.5 0 1.1-.5 1.8-.9 1.6-1.4-.9-.9.3.8 1.6.8.8 1.4.9 1.3.4-.1-.5-.1-1.9 0-3.2.1-1.7.5-2.2 1.9-1.8.9.3 2.4.1 3.2-.5 1.2-.8.9-.9-1-.4-2.4.6-2.4.5-.6-.9 1.6-1.3 2.2-1.3 3.5-.3 1.4 1 1.4 1 .3-.5-.8-1-.9-1.9-.3-2.2.5-.3 1.2 0 1.5.6.4.9.5.8.4-.2-.2-2.7 1.3-4.9 3-4.3 1.5.4 1.5.3.2-.6-1.2-.8-2.1-.3-4.6 2.6-2.6 3.1-3.3 3.4-5 2.5-1.2-.7-1.4-1.2-.5-1.2 1.1 0 1.1-.3 0-1.8-1.3-1.5-1.2-1.6.3-.3 1 .7 1.5 1.7 1.2 2.2-.3.5-.1.9.4.9 1.6 0 2.2-1.3 1.1-2.6-.7-.8-.7-1.4.1-1.9.6-.4 1-.3.9.2-.4 2.4.3 2.4 2.4-.3 1.2-1.6 3.1-3 4.2-3.2 1.7-.2 1.8-.1.5.8-1.3 1-1.3 1.1 0 .7.8-.2 1.4-1 1.2-1.7-.2-.7.3-1 1.1-.7.8.3 1.4-.3 1.5-1.6 0-1.2.9-2.7 1.8-3.4 1-.7 1.5-1.3 1.1-1.3-.4 0-.3-.9.3-2 .9-1.6 1.3-1.8 2.4-.8.8.7 1.2 1.7.9 2.2-.3.4-.9.2-1.4-.5-.8-1.3-1-1.2-1.3 1.1 0 .6-.8 1.5-1.6 2-1.2.7-1 .9.7.7 1.2 0 2-.3 1.8-.6-.3-.2.4-1.1 1.5-1.8 1.1-.8 1.8-1.8 1.5-2.3-.3-.5-.1-1.1.5-1.5.5-.3 1-1.2 1-1.8 0-.7-.7-.3-1.5.7-.8 1.1-1.5 1.4-1.5.8v-2c0-.4.5-.8 1-.8 2.3-.3 2.4-.5 1-1.5-1.3-.9-1.3-1 .2-.6.9.3 2.4-.3 3.4-1.4 1.7-1.9.7-2.8-1.2-.9-.7.7-1.1.6-1.1-.3 0-.8.9-1.3 2.1-1.2 1.2.1 2.7.3 3.4.4.7 0 1 .6.7 1.1-.4.6-1.2.7-1.8.3-.7-.4-.5.2.3 1.3 2.2 2.9 2.3 3 1.8 1.4-.5-1.7 3.1-6.2 4.4-5.4.5.3.8.2.7-.3-.1-.4-.1-1.5 0-2.3.1-1.2.3-1.2 1-.2.7 1.1.9 1.1 1.4-.1.8-2.1-1.9-1.5-3.9.9-.8 1-1.3 1.3-.9.6.4-.7.1-2.1-.7-3-1.1-1.5-1.1-1.5.3-.5 2.2 1.7 3.3.3 1.1-1.4-1.5-1.3-1.5-1.3.4-.4 1.1.6 3.4.9 5 .8 2.2-.2 2.8-.7 2.6-2.1-.2-1.3.1-1.6 1-1 .8.5.7-.1-.4-1.7-1.6-2.5-1.6-2.6 1-2.4 1.5.2 3.5.6 4.5 1s1.7.3 1.7-.5c0-.6-.4-.9-.8-.6-.4.2-1.4.1-2.2-.5-1.3-.7-1.3-.9 0-.9 1.2-.1 1.2-.3-.2-1.1-1.1-.6-1.5-1.6-1.1-2.7.3-.9.3-1.4-.1-1.1-.4.4-.9 1.7-1.1 2.9-.2 1.2-.7 2.5-1.1 2.9-.4.3-.5-.1-.1-1 .3-.9 0-2.2-.6-2.9-.9-1-.9-1.1.2-.5 1.1.6 1.3.4.8-.8-.4-1.1-.1-1.7.8-1.7 1.2 0 1.2-.5.3-2.5-1-2.3-1.6-2.5-7-2.3-3.2.2-5.8-.1-5.8-.6s-.6-.3-1.4.3c-1.1.9-1.5.9-1.9-.1-.3-.7-.6-.9-.6-.3-.1 1.1-11.2 1.2-13 .1-.6-.4-1.1-.1-1.1.6 0 .9-.3.9-1-.2-.5-.8-1-1.1-1-.5 0 .6-2.7 1-6 1s-6-.4-6-.9-.6-.3-1.4.3c-1.1.9-1.5.9-1.9-.1-.3-.7-.6-.8-.6-.3-.1 1-8.2 1-10.8 0-.7-.2-1.3-.1-1.3.3s-2.7.5-6 .2-6-.3-6 .1c0 1-3.4.5-4.2-.6-.4-.6-.8-.1-.9 1v2l-.9-2c-.6-1.3-.9-1.5-.9-.5-.1 1.3-.2 1.3-1.1 0-.8-1.2-1-1.2-1-.1 0 1.1-.3 1.1-1.5.1-.8-.7-1.5-.8-1.5-.3s-2.6.6-6 .3c-3.3-.3-6-.3-6 .1 0 1-3.4.5-4.2-.6-.4-.6-.8-.1-.9 1v2l-.9-2c-.6-1.3-.9-1.5-.9-.5-.1 1.3-.2 1.3-1.1 0-.8-1.2-1-1.2-1-.1 0 1.1-.3 1.1-1.5.1-.8-.7-1.5-.8-1.5-.3s-2.6.6-6 .3c-3.3-.3-6-.3-6 0zm118 10c0 .5-.5 1-1.1 1-.5 0-.7-.5-.4-1 .3-.6.8-1 1.1-1 .2 0 .4.4.4 1zm-.5 4.9c.3.5 0 1.3-.6 1.7-.8.4-.7.9.2 1.5.9.6.2.8-1.9.5-1.8-.2-3.6-.7-4-1.1-.4-.4.3-.4 1.6 0 1.2.3 2.2.3 2.1-.2-.5-2.9 1.2-4.5 2.6-2.4zm-111 3.3c.5-.4.5-.1.1.6-.6 1-1.1 1-2.2.1-.8-.6-1.4-1.4-1.4-1.6 0-.3.6 0 1.3.6.8.6 1.8.7 2.2.3zm102.1 6.5c.3 2-1.5 2.6-2.2.9-.3-.9-1.1-1.3-1.7-.9-.6.3-.7.1-.3-.5.4-.6 1.4-.8 2.4-.5 1.4.5 1.5.3.5-.8-.7-.7-1.3-1.8-1.3-2.4.1-1.2 2.3 2.5 2.6 4.2zm-18.5 16.2c-.6 1-.7 2.1-.4 2.5.3.3.1.6-.5.6-.7 0-1.2-.3-1.2-.6 0-.9 2-4.4 2.6-4.4.2 0 0 .8-.5 1.9zm-2.7 0c-.8.8-4.3.8-3.8 0 .2-.4 1.3-.7 2.4-.6 1 .1 1.7.3 1.4.6zm-3.9 4.1c-.3.5-1.2 1-1.8 1-.7 0-.6-.4.3-1 1.9-1.2 2.3-1.2 1.5 0zm-19 18c-.3.5-1.2 1-1.8 1-.7 0-.6-.4.3-1 1.9-1.2 2.3-1.2 1.5 0zM85.5 122c.3.5.8 1 1.1 1 .2 0 .4-.5.4-1 0-.6-.5-1-1.1-1-.5 0-.7.4-.4 1z"/><path d="M318 129.4c0 .2.7.7 1.6 1 .8.3 1.2.2.9-.4-.6-1-2.5-1.4-2.5-.6zM315 135.4c0 .2.7.7 1.6 1 .8.3 1.2.2.9-.4-.6-1-2.5-1.4-2.5-.6zM90.5 139.9c-.3.6.5 1.5 1.7 2.1 2.1 1 2.1 1 .6-.3-1-.8-1.5-1.7-1.1-2 .3-.4.4-.7 0-.7-.3 0-.8.4-1.2.9zM206.1 147.7c.7 1.2 1.5 2 1.8 1.7.3-.2-.3-1.2-1.3-2.2-1.7-1.6-1.8-1.6-.5.5zM296.6 151.9c-1.1 1.2-1.7 2.1-1.5 2.2.2 0 1.2.2 2.1.4 2.2.4 2.8-.4 1.9-2.8-.6-1.7-.8-1.7-2.5.2zm1.8.9c.3.5-.1.9-.9.9s-1.2-.4-.9-.9c.3-.4.7-.8.9-.8.2 0 .6.4.9.8zM111.6 152.5c-1.7 1.3-1.7 1.4.1 2.4 1.7 1 1.7 1-.1 1.1-1.5 0-1.6.3-.6 1.5s1 1.5-.1 1.5c-1.2 0-1.2.2 0 .9 1.1.7 1.1 1 0 1.5s-1.1.7-.1 1.2 1 .9 0 2.2c-1.1 1.4-1 1.5.7.9l2-.7-2 1.6c-1.4 1.1-1.6 1.8-.7 2.1.6.3.9.9.6 1.5-1.1 1.7-1 8.8.1 8.8.7 0 .7.3 0 .8-1.6 1.1-1.2 6.6.5 7.4 1.3.6 1.3.7 0 .7-1 .1-1.5 1.1-1.5 3.1 0 2.2.4 2.9 1.5 2.5.8-.3.6.2-.5 1-1.6 1.3-1.7 1.7-.6 2.4.7.5.9 1.1.4 1.4-.9.6-.9 7.5.1 8.4.3.4 0 1.3-.7 2.1-1 1.3-.9 1.5.8.9l2-.7-2 1.6c-1.4 1.2-1.6 1.8-.7 2.1 1 .4 1 .8.1 1.9-.9 1.1-.8 1.4.2 1.4 1.1 0 1.1.3-.1 1.1-1.2.8-1.2 1.2-.2 1.6.9.4 1 .8.2 1.8-.8.9-.8 1.5 0 2 .7.4.7 1.2 0 2.6-.9 1.5-.7 1.9.7 2 1.5 0 1.5.2.3.7-1.7.8-2.1 6.3-.5 7.4.7.5.7.8 0 .8-.5 0-1 1.1-1 2.5s.4 2.5.9 2.5.3.7-.4 1.5c-1 1.2-1 1.5.1 1.5s1.1.3-.1 1.1c-1.2.8-1.2 1.2-.2 1.6 1 .4 1 .8 0 2.1-1.1 1.4-1 1.5.7.9 1.9-.7 1.9-.6.3.7-2.3 1.7-2.3 2.6-.1 2.6 1.5 0 1.4.2-.3 1.5-1.4 1.1-1.5 1.4-.4 1.5 1.3 0 1.3.1 0 1.1-1.2.8-1.2 1.2-.2 1.6 1 .4 1 .8.1 1.9-.9 1.1-.8 1.4.2 1.4 1.1 0 1.1.2-.1 1-1.2.8-1.3 1.1-.1 1.9.9.6 1 1 .2 1.6-.9.5-.9 1.1.1 2.3 1 1.2 1 1.4.1.8-.7-.4-1.3-.2-1.3.3 0 .6.5 1.1 1 1.1.7 0 .7.6 0 2-.8 1.5-.8 2 .2 2 .8 0 .9.3.3.8-1.6 1.1-1.2 6.6.5 7.4 1.3.6 1.3.7 0 .7-1 .1-1.5 1.1-1.5 3.1 0 2.2.4 2.9 1.5 2.5.8-.3.6.2-.5 1-1.6 1.3-1.7 1.7-.6 2.4.7.5.9 1.1.4 1.4-.9.6-.9 7.5.1 8.4.3.4 0 1.3-.7 2.1-1 1.3-.9 1.5.8.9l2-.7-2 1.6c-1.4 1.2-1.6 1.8-.7 2.1 1 .4 1 .8.1 1.9-.9 1.1-.8 1.4.2 1.4 1.1 0 1.1.3-.1 1.1-1.2.8-1.2 1.2-.2 1.6.9.4 1 .8.2 1.8-.8.9-.8 1.5 0 2 .7.4.7 1.2 0 2.6-.9 1.5-.7 1.9.7 2 1.5 0 1.5.2.3.7-1.7.8-2.1 6.3-.5 7.4.7.5.7.8 0 .8-.5 0-1 1.1-1 2.5s.4 2.5.9 2.5.3.7-.4 1.5c-1 1.2-1 1.5.1 1.5s1.1.3-.1 1.1c-1.2.8-1.2 1.2-.2 1.6 1 .4 1 .8 0 2.1-1.1 1.4-1 1.5.7.9 1.9-.7 1.9-.6.3.7-2.3 1.7-2.3 2.6-.1 2.6 1.5 0 1.4.2-.3 1.5-1.4 1.1-1.5 1.4-.4 1.5 1.3 0 1.3.1 0 1.1-1.2.8-1.2 1.2-.2 1.6 1 .4 1 .8 0 2.1-1.1 1.4-1 1.5.7.9 1.9-.7 1.9-.6.3.7-1 .7-1.8 1.6-1.8 2 0 .3.8.6 1.8.6 1.3 0 1.4.2.3.9-1.6 1-2.1 8.9-.6 9.5.6.3.4.5-.2.5-1 .1-1 .7-.1 2.6 1.2 2.7 2.8 3.3 2.9 1.2 0-.6.4-.3.9.8s.9 1.4.9.7c.1-.6.7-1.2 1.4-1.2.8 0 1.9-1 2.6-2.3.6-1.2.9-1.4.7-.5-.3 1-.1 2 .5 2.3 1.6 1-.1 2.6-2.2 2-2.7-.9-2.4-.2 1.4 2.5 1.7 1.2 2.6 1.7 2 .9-1.8-1.8-1.6-3.4.1-2 1.1.9 1.6.9 2.2 0 .4-.7.3-.9-.4-.5-.6.3-1.3.2-1.6-.3-.3-.5.1-1.1.9-1.5.8-.3 1.7-.1 2 .4.4.6 1.1 1 1.8 1 .6 0 .2-.6-.8-1.4-1.1-.8-2.3-1.2-2.7-1-.4.2-.9 0-1.3-.5-.3-.6.3-.8 1.5-.6 1.6.3 1.9 0 1.6-1.9-.4-2-.1-2.3 1.7-1.8 1.2.3 2.5 1 2.9 1.6.5.6.8.1.8-1.2s-.4-2.1-.9-1.8c-1.1.7-.8-2.1.4-3.1.4-.4.6-.3.2.2-.3.6.2 1.9 1 3 1.5 2 1.5 1.9 1-.3-.4-1.8-.2-2.2 1-1.8 1.2.5 1.4 0 1.1-2.3-.2-1.7-.1-2.8.4-2.5 1.7 1.1 4.8 1.2 5.3.3.4-.5 1.1-.7 1.6-.4.5.4.9.1.9-.5s.5-.8 1.2-.4.8.3.4-.4c-.5-.8-1.3-.9-2.5-.3-1.3.7-2 .5-3-1.1-.7-1.1-.8-1.7-.3-1.4.6.3 1.2.3 1.5-.1.2-.5.2-.2.1.4-.4 1.6 1.2 1.7 2.1.3.4-.6.1-1.8-.6-2.6-1-1.2-1-1.5.2-1.2.8.2 1.3-.3 1.1-1.1-.3-1.2 0-1.2 1.2-.2.8.7 2 1 2.6.6.5-.3 1 .2 1.1 1.2 0 1.6.1 1.6.8-.2.5-1.2.4-2.6-.3-3.4-.8-1.1-.8-1.3.2-.7.7.4 1.2.1 1.2-.9 0-.9.4-1.4 1-1 .5.3.6 1.3.3 2.2-.6 1.5-.5 1.6.9.3s1.4-1.6-.2-3c-1.6-1.4-1.6-1.6.3-3.5 2-2 2-2 .8.2-.7 1.4-.8 2.4-.1 2.8.5.3 1-.1 1-.9s1.5-3.1 3.4-5c1.9-1.8 3.1-3.8 2.8-4.2-.4-.5-.3-.6.2-.2.5.3 1.5.4 2.2.1.9-.3 1.4.2 1.5 1.3 0 1.7.1 1.7.8-.1.5-1.1.7-2.3.5-2.7-.3-.4 0-.9.6-1.3.5-.3 1 0 1 .7 0 .8.5.6 1.1-.5.6-.9 1.4-1.5 1.9-1.2 1 .6 2.2-2.3 1.4-3.6-.3-.5-.1-.9.5-.9.5 0 1.1.3 1.4.7.2.5.3.3.1-.4-.4-1.8.8-2.4 2.5-1 1.4 1.1 1.4 1 .2-.6-1.1-1.4-1.1-1.7 0-1.8.8-.1 1.8-.1 2.2 0 .5.1 1.1-.8 1.4-1.9.3-1.1.9-1.8 1.3-1.5.3.2.6-.9.5-2.5-.1-2 .3-3 1.2-3 .9 0 1.1.5.7 1.2-.4.7-.4 1 .1.6.4-.4 1.5-.2 2.4.5 1.4 1.1 1.5 1 .1-.7-1.3-1.6-1.2-2 .6-3.5 1.9-1.5 1.9-1.8.4-3.1-.9-.8-1-1.1-.3-.6 1.6 1.1 1.7-.6.1-2.2-.9-.9-.9-1.5.1-2.5s1.1-.8.6.8c-.7 2-.6 2 .9.1.9-1.1 1.6-2.3 1.6-2.8 0-.4.6-.6 1.3-.4.6.1.9.1.4-.1-.4-.3-.4-1 0-1.6.3-.7-.3-.4-1.4.5-2.9 2.6-3.6 2.2-1.1-.7 1.1-1.3 2.6-2.2 3.1-1.8.6.3.7.1.3-.5-.4-.7-.2-1.2.5-1.2s.9-.3.6-.6c-.4-.4-1.3-.1-2.2.6-.9.8-1.5.8-1.5.2 0-.6.4-1.3 1-1.7.5-.3.6-1.3.3-2.3-.6-1.5-.5-1.6 1.3-.2 1.7 1.4 1.8 1.4.6-.2-1.2-1.5-4.3-1.5-4 0 .2 1.9-.3 3.2-1.4 3.2-.6 0-.8-.3-.5-.7.4-.3.1-1.3-.5-2.2-.7-.9-.8-1.3-.3-.8.4.4 1.7 0 2.7-1 2.1-1.9 2.5-4.1.4-2.4-1.1.9-1.6.9-2.2 0-.4-.8-.3-.9.5-.5.6.4 1.4 0 1.7-.8.5-1.2 1.1-1.3 2.7-.5 2 .9 2 .9.5-.4-1.8-1.4-2.5-3.3-1-2.3.5.3.9-.1.9-.9 0-2.3-1.3-1.8-2.5 1-.6 1.4-1.7 2.5-2.4 2.5-1 0-1-.2-.1-.8.6-.4 1.5-1.9 1.8-3.5.4-1.5 1.1-2.4 1.6-2.1.5.3.6-.2.3-1-.4-1-.1-1.6.7-1.6 1.1 0 1.1-.2-.1-.9-.8-.6-1.8-.7-2.2-.5-.4.3-.5-.3-.1-1.2.4-1.1.3-1.5-.4-1.1-.7.5-.9-.1-.5-1.5.3-1.4.2-1.9-.6-1.4-.7.4-1.2.2-1.2-.4 0-.7.7-1 1.5-.6.9.3 1.5 0 1.5-1 0-1.2.4-1.3 2.3-.4 2.1 1.1 2.2 1.1.2-.5-1.7-1.4-1.8-1.7-.5-2.5 1.1-.7 1.1-1 .2-1-.7 0-1-.5-.7-1 .4-.6 1.1-.7 1.7-.4.7.5.8.2.4-.5-.6-.9-1.2-.9-2.5.3-1.2 1.1-2 1.2-3.1.5-1.2-.9-1.2-1 .3-.5 1.2.4 1.7.2 1.4-.6-.2-.7-1.3-1.2-2.3-1.1-1 .1-1.3 0-.6-.3.6-.3.9-1.1.5-1.7-.5-.8-.2-.8.9 0 .8.7 1.9.9 2.3.5.5-.4.5-.1.1.5-.5.9-.2 1.1.8.7 1.2-.5 1.3-.9.3-1.9-.7-.7-1.5-1.1-1.8-.9-.3.2-1.4-.3-2.4-1-1.6-1.2-1.5-1.3 1.3-1.1 1.7.1 3.1-.1 3-.4 0-.3.1-.8.2-1.1.7-1.9.7-3.9-.1-3.4-.5.3-.9.1-.9-.5 0-.5.6-1.2 1.3-1.4.9-.4.9-.6 0-.6-.7-.1-1.7.9-2.4 2-.7 1.3-.7 1.9-.1 1.5.6-.3 1.3-.2 1.6.3 1 1.5-3.3 2-4.5.4-1-1.1-1-1.4.2-1.1.8.2 1.3-.4 1.3-1.4-.1-1 .2-1.6.6-1.3.4.3 1.1-.2 1.4-1.1.5-1.2.1-1.4-1.7-1-1.2.3-1.6.3-.9 0 .6-.3 1.2-1 1.2-1.5 0-.6-.4-.8-.9-.4-.5.3-1.3 0-1.7-.7-.4-.7-.3-1 .1-.5.5.4 1.7 0 2.7-1 2.1-1.9 2.5-4.1.4-2.4-1.1.9-1.6.9-2.2 0-.4-.8-.3-.9.5-.5.6.4 1.4 0 1.7-.9.5-1.3.9-1.3 2.3-.3.9.7 1.3.8.9.4-.4-.5-.2-1.6.5-2.5 1.1-1.4 1-1.5-.7-.1-1.8 1.4-1.8 1.3-1.2-1 .6-2.4.6-2.4-.9.2-.9 1.6-2.1 2.8-2.8 2.7-.9 0-.9-.2.1-.6 1.3-.5 1.6-2.9.5-3.6-.5-.2-.2-.2.5-.1.6.2 1.2 0 1.2-.4 0-.5-.6-1.4-1.2-2.2-1.1-1.2-1-1.2.5-.1.9.7 1.7 1 1.7.6s.8-.1 1.8.6c1.5 1.2 1.6 1.2.5-.2-.7-.9-.9-2-.5-2.5.4-.4-.2-.2-1.2.6-1.8 1.4-1.9 1.3-1.3-.3.4-1.1.3-1.6-.3-1.2-.6.3-1-.1-1-.9 0-.9.6-1.3 1.4-1 .8.3 1.7.1 2.1-.5.4-.7 0-.8-1.1-.4-1.3.5-1.5.3-.9-.7.5-.9.4-1.1-.3-.6-.7.4-1.2.3-1.2-.3 0-.5.5-1.2 1-1.4.6-.3.5-.4-.2-.3-.7.2-1.2 1.1-1.2 2 .1.9-.2 1.6-.6 1.6-.7 0-1.2-1.2-2-4.7-.1-.4.4-.9 1.2-1.1 1-.3 1-.2-.1.6-.9.7-1 1.2-.2 1.6.6.4 1.1.4 1.2-.1 0-.4.2-1.6.4-2.5.2-1.1-.2-1.5-1.1-1.1-1.5.5-4.7-2.1-3.7-3.1.4-.3 0-.6-.9-.6-1.8 0-5.1-3.4-4.1-4.3.6-.7-1.2-1.1-3.1-.8-.5.1-.3-.5.4-1.4.7-.9.9-1.5.4-1.3-1.1.3-5.4-2.4-5.4-3.5 0-.4.4-.5 1-.2.6.4.7-.1.3-1.1-.4-1.1-.8-1.3-1.1-.6-.5 1.7-2.2 1.5-2.2-.2 0-.8-.9-1.8-2-2.1-1.1-.4-1.8-1.1-1.5-1.6.4-.5-.1-.9-.9-.9s-1.8-.5-2.2-1.2c-.4-.6-.3-.8.4-.4.6.3 1.4.1 1.8-.5.4-.8.3-.9-.4-.5s-1.2.2-1.2-.4c0-.6-.4-.9-.8-.6-.5.3-2.1-.8-3.6-2.5-1.5-1.6-3.2-2.7-3.7-2.4-.5.4-.6-.1-.3-.9.6-1.5-.6-2.1-3-1.7-.5.1-.4-.4.2-1.2 1.4-1.6.6-2.8-1.4-2-1 .3-1.4-.2-1.4-1.8 0-1.9-.2-2.1-1-.9-.8 1.2-1 1-1-.9 0-2-.2-2.2-1.6-1.1-1.2 1.1-1.5 1.1-1.2-.1.2-.8-.2-1.3-.9-1.2-.7.2-1-.3-.7-1.1.3-.9-.3-1.7-1.5-2.1-1.2-.3-1.9-1.1-1.6-1.6.4-.5-.1-.9-.9-.9s-1.8-.5-2.2-1.2c-.4-.7-.3-.8.4-.4.8.5 1 .2.6-.9-.5-1.3-.9-1.3-2.2-.3-1.1.9-1.4 1-.9.1.8-1.3-3.2-6-4.5-5.6-.5.2-.8-.4-.8-1.3 0-.8-.4-1.2-1-.9-.5.3-1-.3-1-1.5s-.4-1.8-1-1.5c-.5.3-1 .1-1-.5s-.4-.8-1-.5c-.9.6-1.4-.8-1.1-2.8.1-.5-.3-.6-.9-.2-.5.3-1 .1-1-.5 0-.7-.7-.9-1.6-.6-.8.3-1.3.2-1-.3.3-.4-.7-1.7-2.2-2.8-2.4-1.7-3.1-1.9-4.6-.8zm78.8 116.9c-.3.9-1.2 1.2-2.2.9-1.5-.6-.9-1.1 2.5-2.2.1-.1 0 .5-.3 1.3zm0 12c-.3.9-1.2 1.2-2.2.9-1.5-.6-.9-1.1 2.5-2.2.1-.1 0 .5-.3 1.3zm-1.9 2.6c.3.5.1 1-.4 1-.6 0-1.1-.5-1.1-1 0-.6.2-1 .4-1 .3 0 .8.4 1.1 1zm-2.7 29.9c1 .6 1 1-.3 2.1-.8.7-1.8 1-2.2.6-.3-.3-.1-.6.5-.6.7 0 1.2-.5 1.2-1.1 0-.5-.4-.7-1-.4-.5.3-1 .1-1-.4 0-1.3 1-1.4 2.8-.2zm-3.8 2.3c0 .4-.4.8-.9.8-.6 0-1.2-.4-1.5-.8-.3-.5.1-.9.9-.9s1.5.4 1.5.9zm-2.1 4.9c-.6.3-1 .9-1 1.3.3 2.2 0 3.6-.8 3.2-1.2-.8-7.6 4.3-7.3 5.8.2 1.1-1.6 2.6-3.8 3-.3.1-1 .4-1.5.8-.6.4-1.7.2-2.5-.4-1.3-.8-1.3-.9 0-.5 2 .6 4.1-1.7 2.9-3.2-.6-.8-.5-.8.3-.1 1.8 1.5 3.5 1.2 3.5-.5 0-1.4-1.1-2-3.2-1.5-.5.1-.5-.4.2-1.1.9-.9 1.6-.9 2.5-.1.9.7 1.9.7 2.8.2 1-.7 1.1-1 .3-1-.7 0-1.3-.5-1.3-1.1 0-.8.5-.8 1.5.1 1.7 1.4 2.1 0 .5-1.6-.7-.7-.6-1.1.4-1.1.8 0 1.3.4 1 .9-.6 1 .7 1 2.1 0 1.7-1.2 1.7-3.5 0-2.8-1 .3-1.4.2-1-.5.4-.6 1.3-.8 2.1-.5.9.3 1.4-.1 1.4-1.2 0-1.4.2-1.5 1-.2.6.9.5 1.7-.1 2.1zm-17.5 15.8c-.3.3-1.5-.6-2.7-1.8l-2.2-2.4 2.7 1.9c1.4 1 2.4 2.1 2.2 2.3zM158 340c-.8.5-1.9 1-2.5 1-.5 0-.3-.5.5-1s2-1 2.5-1c.6 0 .3.5-.5 1zm-9 9.1c0 .5-.4.9-.8.9-.5 0-.9-.7-.9-1.5s.4-1.2.9-.9c.4.3.8.9.8 1.5zm-2 3.1c0 .4-.4.8-.9.8-.6 0-1.2-.4-1.5-.8-.3-.5.1-.9.9-.9s1.5.4 1.5.9zm-8.3 3.3c0 .8-.4 1.2-.9.9-.5-.3-.6-1-.3-1.5.9-1.3 1.2-1.1 1.2.6zm-.2 5.5c1.6 1.7 1.6 2 .3 1.5-.9-.4-1.9-1.3-2.2-2.1-.7-1.9-.2-1.8 1.9.6zM90.5 154c-.3.6.1.7.9.4 1.8-.7 2.1-1.4.7-1.4-.6 0-1.3.4-1.6 1zM295 158c0 .5.7.7 1.5.4.8-.4 1.5-.8 1.5-1 0-.2-.7-.4-1.5-.4s-1.5.4-1.5 1zM133 166.4c0 .2.8 1 1.8 1.7 1.5 1.3 1.6 1.2.3-.4s-2.1-2.1-2.1-1.3zM384 169c-.8 1.1-2.3 2.3-3.3 2.6-1.4.5-1.6.9-.6 2 1 1.2.9 1.3-.4.8-1-.3-2.1.2-2.9 1.5-.7 1.2-1.8 2.1-2.5 2.1s-1.3.4-1.3 1c0 1.4-3.7 5-4.4 4.2-.3-.3-.6 0-.6.7 0 .6-1.8 2.8-4 4.8-2.1 2-3.7 4-3.4 4.5.3.4-.3.5-1.3.1-1-.3-1.5-.3-1.1.1.3.4-1.2 2.4-3.4 4.4-7 6.3-10.6 10.1-10 10.7.3.3-.2.5-1.2.5-.9 0-2.1 1-2.6 2.2-.5 1.3-.9 1.9-.9 1.5-.1-.4-.7-.2-1.5.5-1 .9-1.1 1.7-.4 2.6.8.9.7 1.1-.6.6-1-.4-1.6-.1-1.6.7 0 .7-.3 1-.6.7-.7-.7-10 9.2-9.7 10.3.2.5 0 .8-.5.7-.4-.2-2.8 1.7-5.3 4-4.4 4.1-5.2 6.2-3.4 9.1.5 1 .4 1.2-.3.7-1.5-.9-1.3 9.3.2 11.3.8 1.1.8 1.3-.1.8-1.5-1-1.5 5.2.1 7.2.8 1.1.8 1.3-.1.8-.9-.6-1.2 1-1 6.5.1 4 .6 7.9 1.1 8.7.6 1 .5 1.2-.2.7-1.4-.8-1.2 13.1.2 15.3.6 1 .5 1.2-.2.7-1.4-.8-1.2 13.1.2 15.3.6 1 .5 1.2-.2.7-1.4-.9-1.3 14.3.1 16.2.7.9.6 1.1-.6.6-1.2-.4-1.4-.1-1 1.5.3 1.2 1 2.1 1.7 2.1.6 0 .5.4-.3.9s-1.2 1.8-.8 3c.3 1.2 0 2.1-.5 2.1-.6 0-.7.5-.2 1.2.5.7.9 3.5.8 6.3-.1 2.7.3 5.6.9 6.3.7.9.6 1.1-.6.6-1.2-.4-1.4-.1-1 1.5.3 1.2 1 2.1 1.7 2.1.6 0 .5.4-.3.9s-1.2 1.8-.8 3c.3 1.2 0 2.1-.5 2.1-.6 0-.7.5-.2 1.2.5.7.9 3.5.8 6.3-.1 2.7.3 5.6.9 6.3.7.9.6 1.1-.6.6-1.2-.4-1.4-.1-1 1.5.3 1.2 1 2.1 1.7 2.1.6 0 .5.4-.3.9s-1.2 1.8-.8 3c.3 1.2 0 2.1-.5 2.1-.6 0-.7.5-.2 1.2.5.7.9 3.5.8 6.3-.1 2.7.3 5.6.9 6.3.7.9.6 1.1-.6.6-1.2-.4-1.4-.1-1 1.5.3 1.2 1 2.1 1.7 2.1.6 0 .5.4-.3.9s-1.2 1.8-.8 3c.3 1.2 0 2.1-.5 2.1-.6 0-.7.5-.2 1.3.5.6.9 3.4.8 6.2-.1 2.7.3 5.6.9 6.3.7.9.6 1.1-.7.6-1.3-.5-1.5-.2-.9 1.2.3 1.1 1.1 2.2 1.7 2.6.8.5.8.8 0 .8-.7 0-1.2 2.2-1.2 6 0 4.2.4 5.8 1.2 5.3.6-.4.5.1-.3 1-1.2 1.5-1.1 2 .7 3.6 1.2 1 1.8 2.2 1.4 2.7-.4.4 0 .3 1-.4 1.3-1 1.7-1 2 0 .4 1 .8 1.1 2 0 1.2-1 2-.8 4.1.8 3 2.4 4.5 2.6 2.7.5-1.1-1.3-1-1.4.4-.9.9.3 1.6 1 1.6 1.6 0 .5.5.6 1 .3.6-.3 1.3.1 1.6.9.3.9 1 1.3 1.6 1 .5-.3.4-1.3-.4-2.2-1.2-1.5-1.1-1.6.5-.3 1.5 1.2 2 1.2 2.6.2.6-1 1-.9 1.4.4.4.9.3 1.4-.2 1.1-1.1-.7-3.6 2.2-2.7 3.1.3.3.6.1.6-.5 0-1.3 2.6-1.6 3.3-.5.2.5.2.2.1-.5-.2-.6.2-1.2.8-1.2.6 0 .5-.6-.3-1.7-1.3-1.5-1.2-1.5.8-.2 1.6.9 1.9 1.6 1 2.1-.9.6-.9.8.1.8.7 0 1 .5.6 1.2s-.3.8.5.4c.6-.4.8-1.2.5-1.8-.4-.6-.1-.8.7-.6.8.3 1.3 1 1.2 1.5-.1.5.5 1 1.2 1 1 0 1.2-.4.5-1.2-.5-.7-.6-1.6-.2-2 .4-.5.2-.5-.4-.2-.7.4-1.7 0-2.4-.8-.9-1-.9-1.5-.1-1.5.6 0 1.1.4 1.1.8s.9.8 2 .9c1.8.2 2.5-.8 2.1-3-.1-.5.3-.6.9-.2.7.4.7 1.2 0 2.4-.5 1-.6 2.2-.2 2.6.4.5.1.5-.6 0-1.1-.6-1.2-.3-.3 1.4 1.4 2.5 2.3 2.8 1.4.4-.5-1.2-.3-1.4.7-.8.9.5 1.1.4.6-.3-.4-.7-.2-2 .3-2.9.6-1 1.1-1.2 1.1-.6 0 .7.5 1.3 1 1.3.7 0 .7-.7 0-2.3-1.1-2.1-1-2.1.4-.3 1.8 2.2 1.1 4-1.3 3.2-1.4-.5-1.4-.4.1.7 1.4 1.1 1.5 1.6.5 2.7-1 1.2-.9 1.2.4.2.9-.6 2-.8 2.5-.4.4.4.2-.1-.5-1.1-1.4-1.8-.2-2.4 1.5-.7.7.7 1.1.6 1.1-.4 0-.8-.3-1.3-.7-1.1-.9.6-.6-3.3.4-4.2.4-.5.7-.3.6.2-.4 2 0 3.5 1 3.5.5 0 .7-.8.4-1.8-.5-1.4-.4-1.4.4-.2.8 1 .8 1.8 0 2.7-.8 1-.6 1.3.5 1.3.8 0 1.7.6 2 1.2.3.7.4-.4.2-2.5-.1-2-.2-3.7-.1-3.7s1 1 2 2.2c1.6 1.8 1.6 2 .2 1.5-1.1-.4-1.5-.3-1.1.4.4.5 1.6.7 2.7.3 1.5-.5 1.9-.3 1.3.7-.5.8-.5 1.1 0 .7.4-.4 1.3-.4 1.9.2.8.6 1.2.2 1.3-1.3.2-1.4-.1-1.7-.6-.9-.6 1-1.1 1-2.1-.3-1.1-1.3-1-1.4.6-.8 1.6.6 1.7.5.6-.9-1.1-1.3-1.1-1.8 0-2.4.7-.4 1-.4.6 0-.4.5.2 1.7 1.2 2.8 1 1.1 1.7 2.5 1.6 3.2-.2.6-.1.8.1.3.3-.4.9-.4 1.5-.1.6.4.5-.2-.1-1.5-.7-1.1-1-2.1-.9-2.2 2.9-.8 3.5-.5 3.1 1.2-.3 1.1 0 1.9.7 1.9.9 0 .9.4-.1 1.7-1.2 1.6-1.2 1.7.2.6.9-.7 2-.9 2.5-.5s.1-.3-.9-1.5c-1.4-1.6-1.5-2.3-.6-2.9.7-.4 1-.3.6.3-.9 1.4 1.1 2.1 4.7 1.7 3.9-.4 5.3-1.9 3.6-3.9-.8-1-.9-1.5-.1-1.5.6 0 1.1.5 1.1 1.1 0 .5.5.7 1 .4.6-.4.7-1.1.4-1.7-.4-.7-.2-.8.4-.4.9.5.8 1.4-.4 3.1-1.1 1.8-1.2 2.5-.3 3.1.7.4.9.3.6-.3-.4-.6.2-2.1 1.2-3.4 1.8-2.4 2.5-6.3 1-5.3-.5.2-.6 1.2-.3 2.2.5 1.5.5 1.5-.6-.1-.6-.9-.8-2.2-.5-2.8.4-.5.1-1.7-.7-2.6-.9-1.2-.9-1.5 0-.9.7.4 1.2.1 1.2-.9 0-1.3.4-1.4 2.3-.5 1.8.9 2 .9.7-.2-.8-.7-1.6-2-1.8-2.8-.2-.8-.9-1.8-1.5-2.2-1.1-.7-1-.9 1.2-1.2.5 0 1.2-.4 1.5-.8.3-.5.3-.6-.1-.3-.3.3-1.3-.4-2-1.5-.8-1.1-1.9-1.7-2.5-1.4-.7.4-.8.2-.4-.4.5-.9 1.5-.8 3.6.3s3.1 1.2 3.6.3c.4-.6.3-.8-.3-.5-.6.4-2.1-.2-3.3-1.3-1.3-1.1-2-2.1-1.7-2.1.4-.1 1.1-.2 1.6-.3.5 0 1.2-.4 1.5-.8.3-.5.3-.6 0-.3-.4.2-1.4-.6-2.4-1.8-1.8-2.1-1.7-4.7.2-4.7.7 0 .6.5-.1 1.3-.8 1.1-.5 1.6 1.4 2.5 1.6.7 2.6.8 3 .1.4-.5.3-.9-.2-.8-1.9.3-3.3-.2-3.3-1.2 0-.5.5-.7 1.2-.3.7.4.8.3.4-.4s-.1-1.2.6-1.2c1 0 .9-.3-.2-.9-.8-.6-1.7-.8-2.1-.5-.4.2-1-.3-1.3-1.2-.3-.8-1-1.3-1.4-1-.5.3-.9-.1-.9-.9 0-1.2.4-1.2 2 .2 1.9 1.7 2 1.7 1.4.1-.3-1 .1-2.4.9-3.3.9-.8 1.1-1.5.5-1.5-.6 0-1.1-.9-1.1-2s.6-2 1.3-2c.8 0 .7-.4-.3-1-1.2-.8-1.2-1 .5-1 1.8-.1 1.7-.2-.4-1.1-1.5-.6-2.8-.6-3.6.1-.8.7-1.2.5-1.2-.5 0-.8.4-1.2.8-.9.4.2 1.1 0 1.4-.6.5-.8 1.1-.7 2.1.1 1 .8 1.4.8 1.4 0 0-.6-.6-1.1-1.2-1.1-.9 0-.8-.4.2-1 2-1.3.4-1.3-2.1.1-1.8.9-1.9.8-.7-1 .6-1.1 1.6-1.7 2.2-1.4.5.3.6.1.3-.4-.8-1.3 1.7-3.6 2.8-2.5.5.4.5.1.1-.6-.6-1-1.1-1-2.2-.1-.9.7-1.4.8-1.4.1 0-.6.4-1.3.9-1.7.6-.3.8-1.4.6-2.5-.2-1.1.2-2 .8-2 .7 0 .7-.4-.3-.9-.8-.6-1.7-.8-2.1-.5-.4.2-1-.3-1.3-1.2-.3-.8-1-1.3-1.4-1-.5.3-.9-.1-.9-.9 0-1.2.4-1.2 2 .2 1.9 1.7 2 1.7 1.4.1-.3-1 .1-2.4.9-3.3.9-.8 1.1-1.5.5-1.5-1.5 0-1.4-3.7.1-4.2.7-.3.5-.7-.6-1.1-1-.4-1.5-.3-1.1.3.3.6.1 1-.5 1-.7 0-.9-.8-.4-2.2.6-1.9.5-2.1-.8-1.1-1.2 1-1.5 1-1.5-.2 0-.8.4-1.2.8-.9.4.2 1 0 1.4-.5.3-.5-.3-1.5-1.2-2.1-1.7-1.1-1.7-1.1 0-.6 1.1.3 1.7 0 1.7-1 0-.9.5-1.3 1.3-.9.6.4.4 0-.5-.8-1.9-1.5-2.4-4.7-.8-4.7.5 0 .7.7.4 1.5-.4 1 0 1.5 1.2 1.5 1.6 0 1.7-.2.4-1-1.4-.9-.7-1.4 1.3-1.1.4.1.2-.8-.5-1.9-.9-1.4-1.5-1.6-2.1-.7-.6.8-.7.8-.4-.3.2-.9 1.4-1.4 2.8-1.3l2.4.3-2.3-1.3c-1.8-1-2-1.5-1-2.6.8-.8.8-1.1.2-.8-.8.5-1.1-.2-1-1.8.1-2 .5-2.4 2.1-1.9 1.7.4 1.7.3-.3-.8-1.8-1.1-2-1.6-1-2.7 1.1-1.1 1-1.2-.1-.6s-1.3.4-.7-1.1c1.2-3.1 1.2-3.9-.1-3.6-.7.1-1.3-.5-1.3-1.3 0-1.3.4-1.4 2.3-.5 1.8.9 2 .9.7-.2-.8-.7-1.6-2.1-1.8-3.2-.3-1.4.1-1.7 1.5-1.2 1.7.6 1.7.5.1-.8-1-.7-1.8-1.9-1.8-2.7 0-1.1.2-1.1 1.1.1.9 1.3 1 1.2.5-.3-.3-.9 0-1.7.6-1.7s.8-.3.5-.6c-.4-.4-1.2-.2-1.9.3-1.6 1.2-4.9 1.3-4.2.1.3-.5.9-.6 1.4-.3.5.3 1.1.1 1.5-.4.7-1.2-2.9-3.3-4-2.3-.5.4-.5.1-.1-.6s1.2-.9 1.8-.6c.6.4 2.2.8 3.5 1 2.2.2 2.3.1 1-1.4-1.3-1.6-1.5-2.9-.6-5.9.2-.6 0-1.1-.6-1.2-.5 0-1 1.5-.9 3.4 0 3.7-.3 4-2.6 2.5-1.3-.8-1.2-1 .4-1s1.7-.2.5-1.7c-1-1.1-1-1.4-.1-.9.6.4 1.2.3 1.2-.1 0-.5-.6-1.5-1.2-2.2-1-1.1-1-1.3 0-.7.7.4 1.2.1 1.2-.9 0-1.3.4-1.4 2.3-.5 1.8.9 2 .9.7-.2-.8-.7-1.6-2-1.8-2.8-.2-.8-.9-1.8-1.5-2.2-1.1-.7-1-.9 1.2-1.2.5 0 1.2-.4 1.5-.9.3-.4.3-.5-.1-.2-.3.3-1.3-.4-2-1.5-.8-1.1-1.9-1.7-2.5-1.4-.7.4-.8.2-.4-.4.5-.9 1.5-.8 3.6.3s3.1 1.2 3.6.3c.4-.6.3-.8-.3-.5-.6.4-2.1-.2-3.3-1.3-1.3-1.1-2-2.1-1.7-2.1.4-.1 1.1-.2 1.6-.3.5 0 1.2-.4 1.5-.9.3-.4.3-.5 0-.2-.4.2-1.4-.6-2.4-1.8-1.8-2.1-1.7-4.7.2-4.7.7 0 .6.5-.1 1.3-.8 1.1-.5 1.6 1.4 2.5 1.6.7 2.6.8 3 .1.4-.5.3-.9-.2-.8-1.9.3-3.3-.2-3.3-1.2 0-.5.5-.7 1.2-.3.7.4.8.3.4-.4s-.1-1.2.6-1.2c1 0 .9-.3-.2-.9-.8-.6-1.7-.8-2.1-.5-.4.2-1-.3-1.3-1.2-.3-.8-1-1.3-1.4-1-.5.3-.9-.1-.9-.9 0-1.2.4-1.2 2 .2 1.9 1.7 2 1.7 1.4.1-.3-1 .1-2.4.9-3.3.9-.8 1.1-1.5.5-1.5-.6 0-1.1-.7-1.1-1.6 0-.9-.7-2.2-1.5-2.8-.9-.7-1.2-1.6-.6-2.5.7-1.1 1-.9 1.6.8.6 2.1 2.5 2.9 2.5 1.1 0-.6-.4-1-.9-1-.6 0-.9-1.9-.9-4.1 0-2.7.3-3.7.9-2.8.7 1.1.9 1 .9-.4 0-1.2.4-1.6 1.3-1.1.7.4.8.3.4-.2-.5-.5-1.6-.9-2.4-.9-.9 0-1.8-.6-2-1.3-.3-.8.2-1 1.4-.6 1 .3 1.4.2.8-.3-1.5-1.2-1.9-4.7-.4-3.7.8.4 1 .3.5-.4-.4-.7-.1-1.2.6-1.2 1 0 .9-.3-.2-.9-.8-.6-1.7-.8-2.1-.5-.4.2-1-.3-1.3-1.2-.3-.8-1-1.3-1.4-1-.5.3-.9-.1-.9-.9 0-1.2.4-1.2 2 .2 1.9 1.7 2 1.7 1.4.1-.3-1 .1-2.4.9-3.3.9-.8 1.1-1.5.5-1.5-1.5 0-1.4-3.7.1-4.2.7-.3.5-.7-.6-1.1-1-.4-1.5-.3-1.1.3.3.6.1 1-.5 1-.7 0-.9-.8-.4-2.2.6-1.9.5-2.1-.8-1.1-1.2 1-1.5 1-1.5-.2 0-.8.4-1.2.8-.9.4.2 1 0 1.4-.5.3-.5-.3-1.5-1.2-2.1-1.7-1.1-1.7-1.1 0-.6 1.1.3 1.7 0 1.7-1 0-.9.5-1.3 1.3-.9.6.4.4 0-.5-.8-1.9-1.5-2.4-4.7-.8-4.7.5 0 .7.7.4 1.5-.4 1 0 1.5 1.2 1.5 1.6 0 1.7-.2.4-1-1.4-.9-.7-1.5 1.4-1.1.5.1.4-.4-.2-1.2-.7-.8-1-2.1-.7-2.9.4-.9-.1-1.8-1.1-2.2-1.3-.5-1.4-.4-.6.7.8.9.8 1.7 0 2.7-.8 1.2-.9 1.2-.4-.2.3-1 .1-2-.5-2.3-.5-.4-.7-1.1-.4-1.6.4-.5-.1-.9-.9-.9s-1.8-.4-2.1-1c-.4-.7.3-.7 2 0 3.1 1.2 5.5 1.3 4 .2-.5-.4-1.1-1.5-1.1-2.5-.2-1.3.3-1.6 2-1.2 2 .6 2 .5-.2-.7-1.8-1.1-2-1.6-1-2.7 1.1-1.1 1-1.2-.1-.6s-1.3.4-.7-1.1c1.2-3.1 1.2-3.9-.1-3.7-.7.2-1.3-.4-1.3-1.2 0-1.3.4-1.4 2.3-.5 1.8.9 2 .9.7-.2-.8-.7-1.6-2.1-1.8-3.2-.3-1.4.1-1.7 1.5-1.2 1.7.6 1.7.5.1-.8-1-.7-1.8-1.9-1.8-2.7 0-1.1.2-1.1 1.1.1.9 1.3 1 1.2.5-.3-.3-.9 0-1.7.6-1.7s.8-.3.5-.6c-.4-.4-1.2-.2-1.9.3-1.6 1.2-4.9 1.3-4.2.1.3-.5.8-.6 1.2-.4.4.2 1.6-.2 2.7-1 1-.8 1.4-1.4.9-1.4-.6 0-1.1-1.9-1.3-4.3-.1-2.3-.6-4.6-1.1-5.1-.6-.6-.8.3-.6 2.2.4 2.4.1 3-1.1 2.5-.8-.3-1.1-.9-.6-1.2.4-.3.9-1.9 1-3.4.1-2.4-.1-2.6-1.6-1.5-1.3 1-1.4 1-.4-.2 1-1.1 1-1.7 0-2.9-.9-1.2-.9-1.3.1-.7 1.6 1 1.5-.5-.3-3.1-1-1.5-1.2-2.4-.5-2.8 1.5-.9-.7-3.5-2.9-3.5-.9 0-2.3.9-3.1 2zm10.7 21.4c0 .7-1 1.3-2.1 1.4-1.6.1-1.8-.1-.6-.8 1.3-.8 1.2-1.2-.5-2.5-1.9-1.5-1.9-1.5.6-.4 1.4.6 2.6 1.6 2.6 2.3zm-1 6.2c-.3.3-1.2.4-1.9.1-.8-.3-.5-.6.6-.6 1.1-.1 1.7.2 1.3.5zm.9 3.4c0 1.1-.6 2.2-1.2 2.4-2 .8-.9-3.5 1.1-4.4.1 0 .1.9.1 2zm-1.6 6c0 .5-.2 1-.4 1-.3 0-.8-.5-1.1-1-.3-.6-.1-1 .4-1 .6 0 1.1.4 1.1 1zm2.4 1.5c-.4.8-1.1 1.5-1.6 1.5-.6 0-.5-.6.2-1.5.7-.8 1.4-1.5 1.6-1.5.2 0 .1.7-.2 1.5zm-.8 4.8c.1.9-.2 1.5-.7 1.1-.5-.3-.6-1-.3-1.6.5-.8.1-.9-1-.5s-1.5.3-1.1-.4c1-1.4 2.8-.6 3.1 1.4zm-1.6 2.8c0 .5.5.7 1 .4.6-.3 1-.1 1 .4 0 1.6-1.6 1.3-3-.4-.9-1-.9-1.5-.1-1.5.6 0 1.1.5 1.1 1.1zm-.2 9c-.3.8-.7.3-1.1-1-.4-1.7-.3-2.1.5-1.3.5.5.8 1.6.6 2.3zm-1.8 1.3c0 .3-.4.8-1 1.1-.5.3-1 .1-1-.4 0-.6.5-1.1 1-1.1.6 0 1 .2 1 .4zm3.2 19.5c.2.7-.5 1.5-1.6 1.6-1.4.3-1.6.1-.7-.8 1.8-1.8 1.3-3.1-.6-1.6-1.6 1.2-1.7 1.2-.6-.2.7-.9 1.1-1.8.9-2.1-.1-.3.3 0 1 .6s1.4 1.7 1.6 2.5zm-69.5-1.4c0 .8-.4 1.2-.9.9-.5-.3-.6-1-.3-1.5.9-1.3 1.2-1.1 1.2.6zm70.3 11c-.6.8-.8 2-.4 2.6.4.8.3.9-.4.5s-1.2-.2-1.2.3c0 .6-.4 1.1-.8 1.1-.5 0-.9-.7-.9-1.5s.4-1.2.9-.9c.4.3.8-.1.8-1 0-1.2 1.1-2.1 2.9-2.5.2-.1-.2.6-.9 1.4zm-.6 9c-.4.8-1 1.5-1.5 1.5-.4 0-.6-.7-.3-1.5.4-.8 1-1.5 1.5-1.5.4 0 .6.7.3 1.5zm-.4 3.9c-.7.7-1.3.7-2 0-.6-.6-.3-1 1-1s1.6.4 1 1zm.2 9.5c.2.7-.5 1.5-1.6 1.6-1.4.3-1.6.1-.7-.8 1.8-1.8 1.3-3.1-.6-1.6-1.6 1.2-1.7 1.2-.6-.2.7-.9 1.1-1.8.9-2.1-.1-.3.3 0 1 .6s1.4 1.7 1.6 2.5zm-1.8 16.1c-.6.6-1 .3-1-1s.4-1.6 1-1c.7.7.7 1.3 0 2zm.6 7c0 .5-.8 1-1.7 1-1.5 0-1.6-.2-.3-1 1.9-1.2 2-1.2 2 0zm.9 6.1c-2.2 1.3-3.1 1.1-1.7-.5.7-.8 1.7-1.2 2.2-.9.4.3.2.9-.5 1.4zm-.2 18.5c-.3.3-1.2.4-1.9.1-.8-.3-.5-.6.6-.6 1.1-.1 1.7.2 1.3.5zm.9 3.4c0 1.1-.6 2.2-1.2 2.4-2 .8-.9-3.5 1.1-4.4.1 0 .1.9.1 2zm-1.6 6c0 .5-.2 1-.4 1-.3 0-.8-.5-1.1-1-.3-.6-.1-1 .4-1 .6 0 1.1.4 1.1 1zm2.4 1.5c-.4.8-1.1 1.5-1.6 1.5-.6 0-.5-.6.2-1.5.7-.8 1.4-1.5 1.6-1.5.2 0 .1.7-.2 1.5zm-.8 4.8c.1.9-.2 1.5-.7 1.1-.5-.3-.6-1-.3-1.6.5-.8.1-.9-1-.5s-1.5.3-1.1-.4c1-1.4 2.8-.6 3.1 1.4zm-1.6 2.8c0 .5.5.7 1 .4.6-.3 1-.1 1 .4 0 1.6-1.6 1.3-3-.4-.9-1-.9-1.5-.1-1.5.6 0 1.1.5 1.1 1.1zm1.6 5.2c.1 1-.2 1.5-.7 1.1-.5-.3-.7-1-.4-1.5.4-.5-.1-.9-.9-.9s-1.8-.4-2.1-1c-.4-.6.2-.7 1.6-.2 1.2.5 2.3 1.6 2.5 2.5zm-1.8 3.8c-.3.8-.7.3-1.1-1-.4-1.7-.3-2.1.5-1.3.5.5.8 1.6.6 2.3zm1.4 20.8c.2.7-.5 1.5-1.6 1.6-1.4.3-1.6.1-.7-.8 1.8-1.8 1.3-3.1-.6-1.6-1.6 1.2-1.7 1.2-.6-.2.7-.9 1.1-1.8.9-2.1-.1-.3.3 0 1 .6s1.4 1.7 1.6 2.5zm1.4 10.6c-.2 2.9-1.9 3.7-2.4 1-.3-1.3 1-3.3 2.4-3.5v2.5zm-1.7 4.9c.9 1 .8 1.5-.3 1.9-.9.4-1.8.1-2.2-.5-.5-.7-.2-.8.6-.3 1 .6 1.2.4.7-.8-.8-2.1-.3-2.2 1.2-.3zm.8 11.1c0 .8-.4 1.5-.9 1.5-1 0-1.1-1.4-.1-2.3.9-1 1-.9 1 .8zm-.5 5.4c.2.7-.5 1.5-1.6 1.6-1.4.3-1.6.1-.7-.8 1.8-1.8 1.3-3.1-.6-1.6-1.6 1.2-1.7 1.2-.6-.2.7-.9 1.1-1.8.9-2.1-.1-.3.3 0 1 .6s1.4 1.7 1.6 2.5zm-1.8 16.1c-.6.6-1 .3-1-1s.4-1.6 1-1c.7.7.7 1.3 0 2zm.6 7c0 .5-.8 1-1.7 1-1.5 0-1.6-.2-.3-1 1.9-1.2 2-1.2 2 0zm.9 6.1c-2.2 1.3-3.1 1.1-1.7-.5.7-.8 1.7-1.2 2.2-.9.4.3.2.9-.5 1.4zm-8.9 14c0 .5.6.7 1.3.3.6-.4.8-.3.4.1-1.3 1.5-3.4 1.4-3.4-.1 0-.8.4-1.4.9-1.4.4 0 .8.5.8 1.1zM279 174.1c0 .5.5.7 1 .4.6-.3 1-.8 1-1.1 0-.2-.4-.4-1-.4-.5 0-1 .5-1 1.1z"/><path d="M393.7 174.5c-.4.8-.2 1.7.3 2 .6.4 1 1.1 1 1.7 0 .6-.7.5-1.7-.3-1.5-1.3-1.5-1.2-.2.8 1.5 2.5 3.1 3.1 2.7 1-.2-.6.4-1.1 1.2-.9 1 .1.8-.3-.5-1.3-1.1-.9-1.9-2.3-1.7-3.1.4-1.8-.4-1.8-1.1.1zM92.5 176c-.4.6-1.1.7-1.7.4-.7-.4-.8-.2-.4.5.6.9 1.1.9 2.2 0 1.4-1.1 1.8-1.9 1-1.9-.3 0-.8.5-1.1 1zM396.3 182.5c-.3.9-.3 1.8-.1 2.1.3.3.8-.4 1.1-1.6.6-2.3-.1-2.7-1-.5zM258.6 188.8c-.4.4-1.2.7-1.8.7-.6 0-1.2 1.1-1.4 2.5-.1 1.4 0 1.9.3 1.2.4-1 .8-1 2.1 0 1.4 1 1.5 1 .4-.2-1-1.2-.8-1.6.9-2.6 1.2-.6 1.7-1.4 1.2-1.7-.6-.4-1.3-.3-1.7.1zM180.1 216.7c.6.7 1.7 1.3 2.3 1.2.7 0 .6-.2-.2-.6-.6-.2-1-.8-.8-1.2.3-.4-.1-.8-.9-.8-1.1 0-1.2.4-.4 1.4zM90.5 227.9c-.6 1.1 1.3 2.6 2.2 1.7.4-.3.1-.6-.6-.6s-.9-.5-.6-1c.3-.6.4-1 .1-1-.3 0-.7.4-1.1.9zM90 231.9c0 1 1.9 2.5 2.5 2 .1-.2-.3-1-1.1-1.7s-1.4-.8-1.4-.3zM394.9 233.2c-.6 2.2-.5 3.9.5 4.7.8.7 1.2.4 1.3-1 .1-1-.4-1.9-1-1.9-.7 0-.6-.4.3-1 1-.6 1.1-1 .3-1-.7 0-1.3.1-1.4.2zM213.9 241.2c-.1.7-.2 2-.3 2.8-.1.8.3 2.1.9 2.9.7 1.1.7 1.3-.3.7-1.3-.8-1.3 1.9.1 4.1.5.8.3 1.3-.3 1.3-.7 0-1 .6-.7 1.2.2.7 1 1.2 1.6 1 .7-.1 1 .2.6.8-.3.6-1.1.7-1.7.4-.6-.4-.5.3.2 1.6.8 1.5.8 2 .1 1.6-1.8-1.1-1.3.6.7 2 1.3 1.1 1.4 1.3.1.9-1-.4-1.6 0-1.6 1 0 .8.5 1.5 1.1 1.5.6 0 .4.5-.4 1-1.1.7-1.1 1-.2 1 .8 0 1 .5.5 1.2-1.1 1.8-1.2 8.9-.2 8.2.5-.3.9 0 .9.5 0 .6.5 1.1 1.1 1.1.6 0 .8-.7.5-1.6-.5-1.4-.4-1.5.7-.5 1.1.9 1.7.7 2.8-.6 1.3-1.7 1.3-1.7-.6-.3-1.1.8-1.7 1-1.3.6.4-.5.2-1.6-.5-2.4-1-1.3-.9-1.4.3-.7 2.4 1.5 4 1.4 4-.1 0-.8.6-1.3 1.3-1.1.6.1 1.1-.4.9-1.1-.2-.9.4-1.1 1.8-.7 1.5.5 1.9.3 1.4-.9s-.2-1.5 1-1c1.3.5 1.3 1 .5 2.7-1.1 2.1-1 2.1.6.5 1.3-1.2 1.5-2.1.8-3-1-1.3-1.4-5.3-.5-4.3.3.3 1.1 0 1.9-.6 1.1-1 1.1-1.5.1-2.8-1.2-1.4-1.1-1.4.5-.2 1.2.9 1.4 1.7.7 2.6-.5.6-.6 1.6-.2 2 .4.5.1.5-.7 0-1-.6-1.2-.4-.6.5s.4 1.1-.6.6c-.8-.4-.3.1 1 1.1 2.3 1.7 6 2.9 4.6 1.5-.4-.4-1.2-.7-1.8-.7-1.2 0-1.7-3.2-.8-5 1-1.8.9-3.5 0-3.5-.6 0-.7-.5-.4-1 .3-.6 0-1-.8-1-1.6 0-3-2.7-2.2-4.1.4-.5-.1-.6-.9-.3-.9.3-1.6.1-1.6-.5s-.5-1.1-1.1-1.1c-1.6 0-5-4.1-4.3-5.1.3-.5-.3-.6-1.2-.2-1 .4-1.5.2-1.1-.3.3-.5-1-1.9-2.9-3.2-2.3-1.5-3.4-1.8-3.5-1zm12.8 18c.2 1.7 0 1.9-.7.8-.5-.8-.6-1.8-.4-2.2.8-1.2 1-1 1.1 1.4zm-8.2 2.8c.3.5.1 1-.4 1-.6 0-1.1-.5-1.1-1 0-.6.2-1 .4-1 .3 0 .8.4 1.1 1zm4.9-.2c.3.5-.1.9-.9.9s-1.2-.4-.9-.9c.3-.4.7-.8.9-.8.2 0 .6.4.9.8zM190.8 246.4c-1.9 1.4-1.4 2.6 1.1 2.6 1.3 0 1.3-.2.2-.9s-1-1.1.5-2c1.1-.6 1.5-1 .9-1-.5 0-1.8.6-2.7 1.3zM285.6 252.2c.4.7.3.8-.5.4-1.8-1.1-4.3 1.8-2.8 3.3.9.9.8 1.1-.5.6-1.1-.5-1.8-.2-1.8.6 0 .7-.3 1-.6.6-.8-.8-6.4 4.7-6.4 6.3 0 .7-.3 1.1-.6.7-.8-.8-3.3 1.6-2.7 2.5.2.5-.1.8-.8.8-.7 0-3.1 1.9-5.3 4.2-2.3 2.3-3.4 3.8-2.6 3.3.8-.4 1.2-.5.8 0-.4.4-1.8 1.3-3 2-1.3.6-2.2 1.7-2 2.4.1.6-.3 1.1-1 .9-.7-.2-2.3.7-3.6 2-1.2 1.2-1.9 2.2-1.5 2.2.4 0-.8 1.1-2.7 2.5-1.9 1.4-2.7 2.5-1.9 2.6.8 0 .4.4-.9 1-1.3.5-2 1.3-1.7 1.9.4.6.3.9-.2.8-1.1-.4-12.3 10.6-12.3 12 0 .7-.7.9-1.7.5-1.6-.6-1.7-.5-.3 1.3.8 1 1.1 1.6.6 1.2-1.3-1.1-4.6 1-4.6 2.9 0 .9-.3 1.4-.6 1-1-.9-4.7 3-3.9 4.2.3.6 1.1.8 1.7.5.7-.4.8-.2.4.5-.6.9-1.1.9-2.1.1-1.7-1.4-3.5-.5-3.5 1.6 0 1-.5 1.2-1.2.8-.9-.5-.8-.2.1.9 1.2 1.5 1.2 1.7-.3 1.1-.9-.4-1.6-.3-1.5.2.1.5 0 1.3-.1 1.9-.6 2.7-.4 6.1.4 6.6.4.4.3 1.6-.3 2.8-.9 1.6-.9 2.1 0 2.1.8 0 .7.5-.2 1.7-1.2 1.5-1.2 1.6.1.8s1.3-.7.1.8c-.7.9-.9 1.7-.3 1.7 1 0 1 5.6 0 6.6-.3.3-.2 2 .2 3.9s.5 3.6.2 3.9c-.9.9-.7 7.6.2 7.9.5.2.4 1.2-.1 2.2-.6 1.1-.7 2.9-.3 4 .4 1.1.3 2.8-.2 3.7-.7 1.4-.5 1.8.9 1.8 1.3 0 1.5.2.5.9-.7.4-1.2 1.2-1.1 1.7.1.5.1 1.1-.1 1.4-.6 1.7-.3 8.1.4 8.3.5.2.4 1.3-.3 2.5-.9 1.7-.9 2.2 0 2.2.8 0 .8.4-.1 1.5-1 1.2-1 1.5.1 1.5s1.1.2-.1 1c-1.3.9-1.3 1 0 1.1.8.1 1.9.1 2.3 0 .5-.1.6.3.2.9-.3.6-1 .8-1.5.5-.4-.2-1 .6-1.2 2-.3 1.3-.1 2.6.5 2.8.6.2.6 1.1-.2 2.5-.9 1.7-.9 2.2 0 2.2.8 0 .8.4-.1 1.5-1 1.2-1 1.5.1 1.5s1.1.2-.1 1c-1.3.9-1.3 1 0 1.1.8.1 1.9.1 2.3 0 .5-.1.6.3.2.9-.3.6-1 .8-1.5.5-.5-.3-.8.3-.8 1.2 0 1-.3 2.6-.7 3.5-.4 1.1-.3 1.8.4 1.8 1.1 0 .9 2.9-.4 6.3-.5 1.2-.2 1.7 1.1 1.7 1.4 0 1.6.2.6.9-.8.4-1.3 1.7-1.2 2.7.1 1.1.1 2.1 0 2.4-.6 1.6-.4 6 .2 6 .4 0 .8.7.8 1.5s.9 1.9 1.9 2.5c2.6 1.3 3.4 1.3 2.5-.3-.4-.6.5-.1 2.1 1.3 1.6 1.4 2.5 1.9 2.1 1.2-.4-.7-.1-1.2.8-1.2 1.8 0 3.5 2.9 2.9 5-.3 1 0 .9.7-.3.6-.9 1.6-1.7 2.1-1.7.6 0 .7.5.3 1.1-.4.8-.1.8 1.4 0 2.4-1.3 4.3-1.1 5.5.4.5.6.7.5.5-.3-.2-.8-.6-1.2-.9-1-.3.2-1.3-.3-2.2-1.1-1.1-.9-1.7-1-1.7-.2 0 .6-.5 1.1-1.1 1.1-.5 0-.7-.5-.4-1 .8-1.3-1.8-.8-2.7.5-1.2 1.5-1-.7.2-2.5.7-1.1 1-1.1 1-.2 0 .8.5 1 1.3.5 1.6-1 3.7-1.3 3.4-.5-.1.4.3.7.8.7.6 0 .9-.5.7-1-.1-.6.6 0 1.7 1.2 1 1.2 2.1 1.9 2.5 1.6.3-.3.1-1.2-.5-1.9-.7-.8-.7-1.4.1-1.9.6-.4.9-.1.8.7-.2.8.6 1.3 2 1.2 1.3-.1 2.2.4 2.2 1.4 0 1.1-.3 1.2-1.4.3-1.7-1.5-2.8-.1-1.5 1.9.5.8.9 1 .9.4 0-1.3 9.2-1.3 10.2.1 1.2 1.5.9-.7-.2-2.5-.7-1.1-1-1.1-1-.2 0 1-.5 1-2.1.1-1.5-.8-1.9-.8-1.5 0 .4.6.3 1.1-.2 1.1-1.1 0-2.5-3-1.7-3.8.3-.3.5 0 .5.8 0 1 .4 1 1.7-.1 1.1-.9 1.4-1 .9-.2-.5.9.2 1.2 2.6 1 1.8-.2 3.8-.6 4.5-1 .8-.5 1 .2.8 2.5-.3 2.4-.2 2.9.5 1.8.7-1.1 1-1.1 1-.2 0 .7.4 1.1.9.7.5-.3 1.2-.1 1.6.5.3.5 1.2 1 1.8 1 .7 0 .4-.5-.6-1.1-1.3-.8-1.5-1.4-.8-2.3.8-.9.7-1.3-.4-1.3-.8 0-1.2.4-.9.9.3.4 0 .8-.5.8-.6 0-1.1-.7-1.1-1.5 0-1 .7-1.4 2.3-1.1 1.2.3 2.6.5 3.1.5.5.1.3.7-.3 1.4-.8 1-.7 1.4.4 1.4.8 0 1.2-.3 1-.6-.2-.4.5-1.8 1.6-3.1 1.1-1.4 1.7-1.7 1.3-.8-.4 1.2-.1 1.6 1.3 1.3 1-.2 1.8-.4 1.8-.5 0-.1 1-.3 2.2-.4 1.2-.1 2 .1 1.7.6-.7 1.2 1 1 2.3-.3 1.2-1.2 4.7 1.7 3.8 3.2-1.1 1.6-2.5 1-1.9-.9.5-1.4.4-1.5-.5-.2s-1.1 1.3-1.1 0c0-1.2-.2-1.2-.9-.1-.5.8-1.1.9-1.5.3-1.1-1.8-4.2-.9-4.4 1.2 0 1.2.2 1.6.6 1.1.9-1.2 4.6-2 3.9-.8-.3.5.8.8 2.6.7 4.7-.2 4.8-.3 4.5-2.1-.2-1 .3-1.8 1-1.8s1.7-.7 2.2-1.5c.7-1 1-1.1 1-.3 0 2.3-.5 2.8-2.3 2.7-1.3-.1-1.5.2-.6 1.2 1.1 1.4 3.9.8 3.9-.8 0-.5.5-.6 1-.3.6.4.7 1.2.3 1.8-.3.7.3.3 1.5-.7 2.7-2.4 2.7-2.6.2-2.1-1.8.3-2-.1-1.8-4 .2-2.4.6-4.1 1.1-3.8.4.2.7 0 .7-.6s.8-.8 1.8-.5c1.3.5 1.4.4.3-.4-.8-.6-2.3-.8-3.4-.6-1.5.2-1.8.1-1-.7.6-.6.9-1.7.7-2.4-.3-.7 0-1.6.6-2 1.8-1.1 2.3.1.9 2.7-1.1 2.1-1.1 2.2.4.9 2.2-1.7 2.2-4 0-5.7-1.3-.9-1.8-2.7-1.9-6.3 0-2.7.3-4.8.6-4.6.4.2.7-1.3.8-3.5.1-2.1-.3-4.2-.8-4.5-.6-.3-1-.1-1 .6s-.3 1-.6.6c-.3-.3-.2-1.2.2-1.9.5-.7.9-2.2 1-3.3.1-1.1.3-2.7.5-3.5.2-.8-.2-1.4-.9-1.2-.8.1-1.1-.2-.7-.8.3-.6 1.1-.8 1.6-.5 1.7 1.1.9-2.6-.9-4.3-.9-1-1.3-1.4-.8-1 1.7 1.4 2.7.8 1.8-.9-.4-1-.8-2.5-.7-3.3 0-.8-.4-1.9-1-2.3-.6-.5-.3-.7.8-.3.9.3 1.7.1 1.7-.4 0-.6-.6-1-1.2-1-.9 0-.8-.4.2-1 1-.7 1.1-1 .2-1-1.1 0-1.2-1.3 0-6 .1-.8-.2-1.4-.9-1.5-.6 0-1.5-.4-2-.8-.4-.5-.1-.7.7-.5 1 .2 1.4-.6 1.5-2.7 0-2.2.4-3 1.7-2.9 1 .1 1.5-.3 1.1-.9-.4-.7 0-.8 1.2-.3 1.5.5 1.6.4.5-.9-.8-1-.9-1.5-.1-1.5.6 0 1.1-.5 1.1-1.1 0-.8-.4-.8-1.5.1-.8.6-2 .8-2.7.4-1-.6-.9-.3.1.9 1.1 1.5 1.1 1.7-.2 1.7-.9 0-1.4-.7-1.3-1.8.2-.9-.4-2.3-1.3-3-1.4-1.1-1.3-1.1.7-.2 1.5.7 2.2.7 2.2 0 0-.5-.6-1-1.2-1-.7-.1-.2-.7 1.2-1.6 2.3-1.4 2.3-1.4.3-.9-1.4.4-2.3.2-2.3-.4 0-.6 1.2-1.1 2.8-1.1h2.7l-2.5-1.3c-1.4-.7-2.6-.9-2.8-.5-.2.4-.8.8-1.4.8-.6 0-.4-.8.5-1.8 1.5-1.7 1.7-2.1 1.7-4.2 0-.6.4-1 .9-1 .6 0 .8.8.7 1.7-.2 1 .3 2.5 1.2 3.3 1.4 1.3 1.5 1.2.8-.5-.5-1.1-.9-2.7-.9-3.5 0-.8-.7-2-1.6-2.7-1.7-1.2-2.6-11.7-.9-10.7 1.1.7 1-.3-.3-2.8-.8-1.5-.8-1.9 0-1.4.6.4 1.1.2 1.1-.4 0-.6.4-.9.9-.6.5.3 1.7-.2 2.8-1.2 1-.9 1.4-1.4.8-1-.7.4-1.5.5-1.8.1-.4-.3-.7-.1-.7.6s-.5.9-1.2.5c-.8-.5-.4-1.3 1-2.5 1.2-.9 1.7-1.9 1.2-2.1-1.5-.5-2-4.1-.6-5 .6-.4.8-.9.5-1.3-.3-.3-1.4.5-2.5 1.7-1 1.2-1.3 1.8-.6 1.4 1.1-.7 1.2-.4.4 1-.5 1.1-.9 3.1-.7 4.5.2 1.6-.2 2.6-1.1 2.6-.8 0-1-.6-.5-1.6.4-.9.6-3.3.6-5.3-.1-2 .2-3.5.5-3.3 1.5 1 .7-5-.9-6.2-1.4-1.2-1.4-1.2.3-.7 1.5.6 1.7.4.9-1.2-.5-1-.9-2.6-.8-3.4 0-.8-.6-2.1-1.5-2.8-1.3-1.1-1.1-1.1.8-.2 1.5.7 2.2.7 2.2 0 0-.5-.6-1-1.2-1-.9 0-.8-.4.2-1 1.1-.7 1.1-1 .2-1-.7 0-1-.5-.7-1 .3-.6 0-1-.7-1-.8 0-.9-.3-.3-.8 1.5-1.1 1.2-6.2-.5-7.2-1.3-.9-1.3-1 0-1.1.8-.1 2.1-.1 2.7 0 .8.1 1-.5.7-1.4-.3-.8-1.1-1.2-1.8-.8-.6.3-.8.3-.4-.2.4-.4.3-1.4-.4-2.2-.6-.8-.7-1.3-.2-1.2 2 .3 2.8-.2 1.6-1-1.1-.7-1.1-.9.1-1.4 1.1-.4 1.4.2 1.2 2.4-.3 3 .9 4.7 1.9 3 .4-.5.1-1.3-.4-1.6-.7-.5-.5-1.2.7-2.1 1.2-1 1.3-1.2.3-.9-1.1.4-1.6-.1-1.7-1.6-.1-1.5.1-1.8 1.1-1 .9.8 1.3.7 1.3-.4 0-.8-.4-1.2-.8-.9-.4.2-1 0-1.4-.6-.3-.5-.1-1 .5-1s.8-.5.4-1.1c-.4-.8-.9-.7-1.5.2-.4.7-.5 1.7-.2 2.3.3.5.1.6-.5.2-.8-.4-1-.2-.6.8s0 1.4-1.5 1.3c-1.8-.1-1.9-.3-.6-1.7.8-.9 1.2-2 .8-2.5-.5-.4-.2-.5.5-.1.8.5 1.2-.2 1.2-2.3 0-1.7-.4-3.1-.9-3.1s-.8-1.4-.7-3c0-1.7.3-3 .7-3 .3 0 .6-.7.6-1.5s-.3-1.5-.7-1.5c-.3 0-.6-1-.7-2.3-.2-2.1-.1-2.1 1.3-.3.8 1.1 1.4 1.5 1.4.9 0-.7-.5-1.5-1-1.8-.6-.4-.7-1.1-.4-1.7.4-.6.2-.8-.3-.5-1.2.8-3.9-2-2.9-3 .3-.3.6-.1.6.5 0 .7.3 1.2.8 1.2.4 0 .7-1.4.7-3 0-1.7-.5-3-1.2-3s-1.3-.5-1.3-1c0-.6-.5-1-1.1-1-.5 0-.7.5-.3 1.2zm-12.9 16.3c0 .8-.4 1.2-.9.9-.5-.3-.6-1-.3-1.5.9-1.3 1.2-1.1 1.2.6zm2.7 3.3c.3.5-.1.9-.9.9s-1.2-.4-.9-.9c.3-.4.7-.8.9-.8.2 0 .6.4.9.8zm-8 6c.3.5-.1.9-.9.9s-1.2-.4-.9-.9c.3-.4.7-.8.9-.8.2 0 .6.4.9.8zM255 286c0 .5-.2 1-.4 1-.3 0-.8-.5-1.1-1-.3-.6-.1-1 .4-1 .6 0 1.1.4 1.1 1zm-10.5 10c.3.5.1 1-.4 1-.6 0-1.1-.5-1.1-1 0-.6.2-1 .4-1 .3 0 .8.4 1.1 1zm-2 4c.3.5.1 1-.4 1-.6 0-1.1-.5-1.1-1 0-.6.2-1 .4-1 .3 0 .8.4 1.1 1zm-8 6c.3.5.1 1-.4 1-.6 0-1.1-.5-1.1-1 0-.6.2-1 .4-1 .3 0 .8.4 1.1 1zM218 327.6c0 .8-1.9 1.3-2.4.6-.3-.5.1-.9.9-.9s1.5.2 1.5.3zm74.5.4c.3.5.1 1-.4 1-.6 0-1.1-.5-1.1-1 0-.6.2-1 .4-1 .3 0 .8.4 1.1 1zm-3.5 22c0 .5-.5 1-1.1 1-.5 0-.7-.5-.4-1 .3-.6.8-1 1.1-1 .2 0 .4.4.4 1zm-68.7 7.5c-.3.9-.8 1.4-1 1.1-.3-.3-.2-.9.2-1.5.9-1.6 1.5-1.3.8.4zm60.1 14.3c.3.5-.1.9-.9.9s-1.2-.4-.9-.9c.3-.4.7-.8.9-.8.2 0 .6.4.9.8zM218 384c.8.5 1.1 1 .5 1-.5 0-1.7-.5-2.5-1s-1-1-.5-1c.6 0 1.7.5 2.5 1zm39 14.4c0 .2-.8 1-1.7 1.7-1.6 1.3-1.7 1.2-.4-.4 1.3-1.6 2.1-2.1 2.1-1.3zm31.1 32.9c-1 .9-1.1.8-.5-.6.3-1 .9-1.5 1.2-1.2.3.3 0 1.1-.7 1.8zm-56 5.4c1.3 1.6 1.2 1.7-.3.4-1.7-1.3-2.2-2.1-1.4-2.1.2 0 1 .8 1.7 1.7zm-15.6 1.2c.3.5.2 1.2-.3 1.5-.5.3-.9-.1-.9-.9 0-1.7.3-1.9 1.2-.6zM293 264.9c0 .6.4 1.3 1 1.6.6.3.7-.1.4-.9-.7-1.8-1.4-2.1-1.4-.7z"/><path d="M291.3 268.5c0 .8.4 1.5.9 1.5.4 0 .8-.7.8-1.5s-.4-1.5-.8-1.5c-.5 0-.9.7-.9 1.5zM231.1 271.3c-1.3 2.1-1.2 2.1.5.5 1-1 1.6-2 1.3-2.2-.3-.3-1.1.5-1.8 1.7zM224 272.5c-.7.8-.9 1.5-.4 1.5.4 0 0 .6-1.1 1.3-1.4 1.1-1.5 1.6-.5 2.2.8.5 1.1.4.7-.2-.4-.6 0-1.3.8-1.7.8-.3 1.5 0 1.5.7s.5.4 1.1-.6c.6-.9 1.4-1.5 2-1.2.5.4.9.1.9-.4 0-1.4-1.7-1.4-2.5-.1-.4.6-1.1.8-1.6.4-.6-.3-.3-1.2.8-2 1-.7 1.3-1.4.7-1.4-.6 0-1.7.7-2.4 1.5zM290.3 272.6c0 .7 1 2.5 2.2 4 1.7 2.1 2.4 2.4 3 1.4.5-.9.4-1.1-.4-.6-.6.4-1.4 0-1.8-1.1-.4-1-1.1-2.1-1.7-2.5-.7-.5-.7-.8.2-.8.6 0 1.2-.4 1.2-.8 0-.5-.6-.9-1.3-.9-.8 0-1.4.6-1.4 1.3zM190.6 274.5c-.7 2 0 3.5 1.7 3.4.9 0 .9-.2 0-.6-2-.7-1.5-2.3.5-1.7 1 .4 1.3.2.7-.3-.5-.4-1.3-1.2-1.6-1.6-.4-.4-.9-.1-1.3.8zM90.5 275.9c-.6 1.1 1.3 2.6 2.2 1.7.4-.3.1-.6-.6-.6s-.9-.5-.6-1c.3-.6.4-1 .1-1-.3 0-.7.4-1.1.9zM295.3 292.5c0 .8.4 1.2.9.9.5-.3.6-1 .3-1.5-.9-1.3-1.2-1.1-1.2.6zM289.7 295.3c.4.6.8 2.9.8 4.9.1 4.1.8 5.3 2.5 4.3.8-.5.6-1.3-.6-2.6-1.5-1.7-1.5-1.9 0-3.4 1.8-1.8 2.1-2.9.6-2-.5.3-1 .2-1-.3 0-.6-.7-1.3-1.6-1.6-1-.4-1.3-.2-.7.7z"/><path d="M293.5 300.1c-.3.4.2.6 1 .5 2.1-.3 2.8-1.3 1-1.3-.9 0-1.8.4-2 .8zM291.5 307c.3.5.3 1.6-.2 2.2-1.3 2.2-1.2 3.7.5 5 1.3 1.1 1.4 1.1.7-.1-.6-1.1-.4-1.3 1.1-.8 1.6.6 1.6.4-.3-1.2-1.2-1-1.9-2.1-1.6-2.5.3-.3 1.2-.1 1.9.5.8.7 1.4.6 2-.2.5-.8.3-.9-.5-.5-.8.5-1.4 0-1.8-1.3-.3-1.2-1-2.1-1.5-2.1s-.6.4-.3 1zM189.3 308.8c-1.1 1.9-.6 4.2.9 4.2.6 0 .6-.6-.2-1.5-1-1.2-.8-1.6 1-2.3 1.8-.7 2-1 .8-1.4-.8-.3-1.9.1-2.5 1zM292.5 316c-1.6.7-1.7.9-.3.9.9.1 2-.4 2.3-.9.7-1.1.7-1.1-2 0zM292.6 319.2c.3.5 1 .6 1.5.3 1.3-.9 1.1-1.2-.6-1.2-.8 0-1.2.4-.9.9zM89.9 320.3c.7.7 1.4.8 2.1.1.6-.6.2-1-1.2-1.1-1.6-.2-1.8.1-.9 1zM92.5 336c-.4.6-1.1.7-1.7.4-.7-.4-.8-.2-.4.5.6.9 1.1.9 2.2 0 1.4-1.1 1.8-1.9 1-1.9-.3 0-.8.5-1.1 1zM292 338.6c-1.6 1.8-2.2 9.1-.9 9.9.5.4.6-.2.3-1.2-.5-1.6-.4-1.6 1 .1.9 1.1 1.8 1.7 2.1 1.4.3-.2-.4-1.3-1.5-2.3-2.4-2.2-2.7-4.3-.3-2.4 1.5 1.3 1.5 1.2.6-.6-1.6-2.9-1.6-3.7-.2-4.6.8-.4 1.1-1.1.8-1.4-.4-.3-1.2.2-1.9 1.1zM159.3 342c-3.6 3.4-5 6.7-3.5 8.2.8.8.9.4.5-1.2s-.3-2.1.5-1.6c.7.4 1 .2.6-.7-.3-.8.2-2 1.1-2.7 1.2-1 1.8-1 3.3.1 1.4 1.1 1.5 1.1.5-.1-1.5-1.6-1.7-3.4-.5-2.6.5.3.9-.1.9-.9s-.1-1.5-.1-1.5c-.1 0-1.5 1.3-3.3 3zM90.5 346c-.3.6.1.7.9.4 1.8-.7 2.1-1.4.7-1.4-.6 0-1.3.4-1.6 1zM180.7 354.2c-1 1-1.5 2.3-1.2 2.8.3.5 0 .7-.8.4-.8-.3-2 .3-2.8 1.2-1.2 1.5-1.2 1.7 0 .9.9-.5 1.2-.4.7.3-.4.6-1.4.8-2.3.5-1.1-.4-1.4-.3-.9.5.4.7.3 1.2-.2 1.2-1.6 0-5.2 4.1-4.6 5.2.4.6.3.8-.4.4-.6-.3-1.5.1-2 1s-1.2 1.5-1.5 1.5c-1.7-.2-1.9 0-.8 1.3.9 1.1.8 1.4-.6 1.2-1 0-1.7.5-1.5 1.2.1.8-.2 1.1-.7.8-.5-.4-1.6.3-2.4 1.4-.7 1.1-1.6 1.9-1.8 1.7-.2-.2-1.4.7-2.6 2-1.2 1.3-1.9 2.3-1.5 2.3.3 0-.4.7-1.6 1.6-1.2.8-1.9 2-1.6 2.6.4.6.2.8-.4.4-.6-.3-1.7.3-2.5 1.4-.7 1.1-1.7 1.7-2.2 1.2-.4-.4-.5.1-.2 1.1.4 1.1.3 1.6-.3 1.2-.6-.3-1-.2-1 .4 0 .5-.9 1.3-2.1 1.6-1.1.4-1.9.9-1.6 1.1.6.6-7.7 9.1-8.5 8.7-.4-.2-.9.6-1.3 1.7-.3 1.1-1.1 2-1.6 2-.6 0-.7.5-.3 1.2.4.6.3.8-.4.4-.6-.3-1.6-.1-2.2.6-4 4.8-5.9 6.6-6.3 6.2-.3-.3-.8.4-1.2 1.5-.3 1.1-1.5 2.3-2.6 2.6-1 .4-1.9.9-1.9 1.3-.1 1.5-6.8 8.1-7.5 7.4-.5-.4-.5.1-.2 1.1.4 1 .3 1.6-.2 1.2-.5-.3-1.7.5-2.5 1.7-.9 1.2-1.6 1.9-1.6 1.6 0-.4-1 .3-2.3 1.5-1.3 1.2-2.3 2.4-2.2 2.7.3 1-3.3 3.8-4.1 3.2-.4-.4.1.6 1 2.3 1.5 2.6 2.4 3 6.2 3.2 6.9.3 7.8.5 8.6 1.7.5.7.8.6.8-.3 0-1.1.4-.9 1.5.5 1.3 1.8 1.4 1.8.9-.6-.4-2.3-.3-2.3.7.3.8 2 1.4 2.5 2.3 1.8 1.6-1.3 5.9 1.5 5 3.2-.5.9-.4.9.6 0s1-1.5-.4-2.8c-.9-.9-1.6-2.1-1.6-2.8 0-.6.7-.2 1.5.9 1.4 1.9 1.4 1.9 1.1-.1-.2-1.1-.1-1.4.1-.8.6 1.7 2 1.7 2.6 0 .4-.9.6-.9.6.1.1.7.5 1 1.1.7.6-.4.7.1.3 1.2-.5 1.5-.3 1.6.8.6 1.9-1.8 3.4-1.6 1.9.2-1.4 1.7-.8 3.1.8 2.1 1.4-.8.9-3.6-.9-4.6-1-.7-.8-.9.8-.7 1.2 0 2.1.4 2.1.7-.2 1.9.3 3 1.1 2.6.5-.3.8-1.4.6-2.4-.1-.9 0-1.1.2-.4.4 1.1.8 1.1 2.1 0 1.2-1 1.4-1 .8-.1-1.1 1.9 2.4 1.6 3.8-.3 1-1.3 1.2-1.3 1.2.5 0 1.1-.4 1.9-.9 1.8-.5-.1-1.1.4-1.3 1.1-.1.7 0 .8.3.2.2-.5.9-.7 1.4-.4.6.3.5 1.2-.3 2.2-1.1 1.5-1.1 1.5.3.5.9-.7 2-.9 2.5-.5.4.4.4 0-.2-.8-1.4-2-1.2-4.2.5-4.8.9-.3 1.1.2.6 1.7-.4 1.5-.3 2.1.7 1.9.7-.2 1.2.3 1 1-.1.8.2 1.1.8.7.6-.3.8-1.1.5-1.6-.4-.5-.2-.9.4-.9.5 0 1.5.8 2 1.7 1.4 2.4 1.4.7 0-1.9-.8-1.5-.8-1.9 0-1.4.6.4 1.1 0 1.2-1.1 0-1.4.2-1.5.7-.3.4.8 1.5 1.6 2.6 1.8 1.1.2 1.5-.1 1.1-.7-.3-.6-.1-1.1.4-1.1.6 0 1.1.5 1.1 1.1 0 .5.4.8 1 .4.5-.3.6-1.3.3-2.3-.3-.9-.3-1.4.1-1 .4.3.9 1.4 1 2.3.1.9.9 2.1 1.7 2.6 1 .6 1 .9.2.9-.7 0-1.3.5-1.3 1.2 0 .6.7.5 1.8-.5 1.5-1.3 2.1-1.4 3.2-.4 1 .9 1.1.9.6-.1-.4-.6-.3-1.2.2-1.2 1.3 0 3.3 2.5 2.7 3.4-.3.3 0 .2.6-.3.8-.7.5-1.6-.9-3.1-1.1-1.2-2.3-1.7-2.6-1.2-.9 1.4-3.9.8-4.4-.9-.3-1.1-.1-1.1.8.1 1 1.2 1.1 1.1.7-.8-.3-1.2-.1-2 .4-1.6.5.3.9 1.3.9 2.2.1 1.6.2 1.5 1.4-.1 1.3-1.6 1.4-1.6 2-.1.6 1.5.8 1.5 2.9-.2 1.2-1 1.7-1.2 1-.5-1.2 1.4-.7 4.1.8 4.1.4 0 .6-.6.3-1.4-.3-.8 0-1.7.7-2.2.7-.4 1.5-.2 1.7.4.2.7 1.1 1.2 1.9 1.2 1.3 0 1.3-.3.2-1.8-1.2-1.5-1.1-1.5.8.1 2 1.8 2.2 1.8 3.3 0 .7-1.1 1-1.2.7-.3-.6 2.1 3.9 4.4 4.7 2.4.3-.8.2-2.1-.1-3.1-.4-1.1-.3-1.4.5-.9.7.4 1.2 1.3 1.2 2.1 0 .7.7 1.6 1.6 1.9 2.1.8 3.1.7 1.9-.2-.5-.4-1.5-1.7-2.2-2.8-1-1.8-.9-2.5.6-3.8 1.6-1.4 1.7-1.4 1.7.9 0 1.3-.4 2.1-.8 1.9-1.4-.9-.9.3.7 1.6 1.2 1 1.4.8 1-.9-.3-1.4.1-2.1 1.3-2.2 1.4 0 1.3-.2-.3-.9-1.1-.5-1.6-.9-1.2-.9.4-.1.2-1.1-.5-2.4-.6-1.2-1.3-3.1-1.5-4.2-.3-1.7-.1-1.8.8-.5.9 1.2 1 1.1.6-.8-.3-1.2-.2-2 .2-1.8.4.3 1.3 0 2.1-.6 1.2-.8 1.2-.9-.2-.4-1.1.3-1.8 0-1.8-.7s-.7-.3-1.5.7c-.8 1.1-1.5 1.5-1.5.9 0-.7.5-1.5 1-1.8.8-.5.7-1.2-.2-2.3-1.2-1.5-1.1-1.6.4-.4 1.7 1.4 3.8.9 3.8-.9 0-.5-.5-.9-1.1-.9-.5 0-.7.6-.3 1.2.4.7-.2.5-1.4-.6-1.4-1.2-1.9-2.4-1.4-3.5.5-.9.8-2.3.7-3.1-.1-.8.3-2.1.8-2.8.7-.9.3-2.1-1.4-4-1.3-1.5-2-2.4-1.6-2 .5.3 1.7-.2 2.8-1.3 1.9-1.9 4.5-2.7 3.4-1-.3.5-.2 1.2.3 1.5.4.2.8-.6.8-1.9 0-2-.3-2.2-1.8-1.4-1.2.7-1.8.6-1.8-.1 0-.6-.6-.8-1.2-.4-.7.4-1 .4-.6-.1.4-.4.2-1.5-.5-2.4-1-1.4-1-1.4.3-.5 2.1 1.6 4.9 1.4 4.3-.3-.3-.7-.9-1.3-1.5-1.3-.5 0-.6.6-.2 1.2.4.7-.2.5-1.4-.6-1.7-1.4-1.9-2.3-1.1-3.7.5-1.1 1.4-1.9 1.9-1.9s.7-.8.4-1.8c-.5-1.4-.3-1.4 1 .3 1.5 1.8 1.5 2-.4 2.7-2.1.8-1.9 2.8.3 2.8.8 0 .8-.3-.1-.9-1-.6-.8-1 .8-1.4 1.8-.5 2-.9 1.1-2.5-.8-1.5-.8-2.2.2-2.6.6-.2.3-.4-.8-.3-1.1.2-2.6.7-3.4 1.1-.9.6-1.2.5-.7-.2.3-.6.2-1.3-.3-1.7-.6-.3-.8-1.2-.5-2 .8-1.9 3.1-2.6 3.1-.9 0 .7-.3 1.1-.7.9-.4-.2-.7.2-.7.9 0 .8.6 1.2 1.3.9 1.4-.5 1.5-4.5 0-5.5-.5-.3-1-1.6-1.1-2.9-.1-1.3-.7-2.5-1.5-2.7-.8-.3-1 0-.5.8.5.9.4 1.1-.4.6-1.5-1-.3-2.9 1.5-2.2.8.3 1.4.1 1.4-.4 0-.6.5-1 1.1-1 .8 0 .7.6-.2 1.7-1.3 1.7-1.2 1.7.4.4 1.7-1.4 1.7-1.6.2-2.7-1.2-.9-1.3-1.3-.3-1.6 1-.4 1.1-.8.1-2-.7-.8-1-1.8-.6-2.1.3-.4 1.2.1 2 1.1 1.3 1.5 1.3 1.5.3-.6-1.8-3.7-3.7-2.7-3.5 1.8.1 2.2-.2 4-.8 4-.5 0-.6-.7-.3-1.6.5-1.2.2-1.5-1.1-1-1.6.5-1.6.4-.3-.7 1.9-1.6 2.4-3.7.8-3.7-.7-.1-.2-.7 1.2-1.5s2-1.4 1.3-1.5c-1.3 0-.6-3.6 1.1-6 .6-.8.6-1.2.2-.8-.5.4-1.6.2-2.4-.5-1.3-.9-1.4-.9-.8 0 .4.7.2 1.3-.3 1.3-.6 0-1.1.5-1.1 1.1 0 .5.4.8.9.5.8-.5.8 1.5.1 3.4-.1.3-.2.9-.1 1.3.1.5-.3.6-.9.2-.8-.5-.8-1.1-.1-1.9.6-.7.7-1.6.3-2-1.1-1.2-.9-7.5.3-6.8.5.3.4-.2-.3-1.1-.8-.9-1-2.2-.6-2.8.4-.7.3-.9-.4-.5-.5.3-1.2.1-1.4-.6-.6-1.8-3.1-1.6-5.1.4zm-24.6 27.1c-1 .9-1.1.8-.5-.6.3-1 .9-1.5 1.2-1.2.3.3 0 1.1-.7 1.8zm32.4 14.6c.3.5.2 1.2-.3 1.5-.5.3-.9-.1-.9-.9 0-1.7.3-1.9 1.2-.6zm.5 20.1c0 .5-.2 1-.4 1-.3 0-.8-.5-1.1-1-.3-.6-.1-1 .4-1 .6 0 1.1.4 1.1 1zm0 24.2c0 .4-.4.8-.9.8-.6 0-1.2-.4-1.5-.8-.3-.5.1-.9.9-.9s1.5.4 1.5.9zm-42.3 6.8c.1 1.1-.2 2.2-.6 2.4-.6.4-.7-2.6-.2-4.2.3-.8.7.1.8 1.8zm37.7.6c.3.8.2 1.2-.4.9-.6-.3-1-1-1-1.6 0-1.4.7-1.1 1.4.7zm-67.4.4c0 .4-.7.7-1.5.6-2.3-.3-2.6-1.2-.5-1.3 1.1-.1 2 .2 2 .7zM143.6 355.9c-.3.5.2 1.7 1.2 2.8.9 1 1.4 1.4 1 .9-1.2-1.6-.9-2.8.5-2 .8.5.8.2-.2-.9-1.6-2-1.8-2-2.5-.8zM394.9 361.2c-.6 2.2-.5 3.9.5 4.7.8.7 1.2.4 1.3-1 .1-1-.4-1.9-1-1.9-.7 0-.6-.4.3-1 1-.6 1.1-1 .3-1-.7 0-1.3.1-1.4.2zM291.4 363.9c0 1.1.4 1.7.8 1.5.4-.3.8-1.2.8-2s-.4-1.4-.8-1.4-.8.9-.8 1.9z"/><path d="M193.7 364.5c-.4.8-.3 1.6.1 1.9.4.3.9-.4.9-1.5.2-2.3-.3-2.5-1-.4zM136.3 365.4c0 .7.6 1.3 1.4 1.3.7 0 1.3-.4 1.3-.8s-.6-.9-1.3-1.2c-.8-.3-1.4 0-1.4.7zM92.5 368c-.4.6-1.1.7-1.7.4-.7-.4-.8-.2-.4.5.6.9 1.1.9 2.2 0 1.4-1.1 1.8-1.9 1-1.9-.3 0-.8.5-1.1 1zM193 369c.6 1.1 1.3 2 1.6 2 .2 0 0-.9-.6-2s-1.3-2-1.6-2c-.2 0 0 .9.6 2zM290.4 373.6c.2 2.9 3.6 8 3.6 5.4 0-.6.6-.8 1.3-.4.7.4.9.3.4-.2s-1.3-1-1.8-1c-.5-.1-1.4-.2-2-.3-.5 0-.7-.6-.4-1.1.4-.6 1-.8 1.5-.5.5.3 1.2.1 1.5-.5.4-.6.3-1-.2-.9-2.2.4-2.5-.2-.7-1.7s1.8-1.5-.3-.5c-1.6.8-2.3.8-2.6-.2-.3-.6-.4.2-.3 1.9zM126.5 373c.3.5 1 1 1.6 1 .5 0 .9-.5.9-1 0-.6-.7-1-1.6-1-.8 0-1.2.4-.9 1zM290.9 380c-.4 3.4-.3 4.4.9 4.7 1.4.5 1.7-1.3.2-2.2-.5-.3-.7-1.2-.3-2 .3-.8.2-1.5-.1-1.5-.3 0-.7.4-.7 1zM293.5 382c.3.5.8 1 1.1 1 .2 0 .4-.5.4-1 0-.6-.5-1-1.1-1-.5 0-.7.4-.4 1zM192 383c-.8.5-1.2 1.2-.9 1.5.4.3 1.2-.1 1.9-1 1.4-1.7 1.1-1.9-1-.5zM193.5 384.9c-.3.5-.2 1.2.3 1.5.5.3.9-.1.9-.9 0-1.7-.3-1.9-1.2-.6zM291.5 387c.3.5.3 1.6-.2 2.2-1.3 2.2-1.2 3.7.5 5 1.3 1.1 1.4 1.1.7-.1-.6-1.1-.4-1.3 1.1-.8 1.6.6 1.6.4-.3-1.2-1.2-1-1.9-2.1-1.6-2.5.3-.3 1.2-.1 1.9.5.8.7 1.4.6 2-.2.5-.8.3-.9-.5-.5-.8.5-1.4 0-1.8-1.3-.3-1.2-1-2.1-1.5-2.1s-.6.4-.3 1zM90.5 387.9c-.6 1.1 1.3 2.6 2.2 1.7.4-.3.1-.6-.6-.6s-.9-.5-.6-1c.3-.6.4-1 .1-1-.3 0-.7.4-1.1.9zM292.5 396c-1.6.7-1.7.9-.3.9.9.1 2-.4 2.3-.9.7-1.1.7-1.1-2 0zM292.5 398.8c.3.3-.1 1.2-.7 2.1-.8 1-.4.9 1-.3 2.6-2.3 2.6-2.3.7-2.3-.8 0-1.3.3-1 .5zM292.6 402.5c-2.8 2.1-2.8 6.8.1 10.1 2.2 2.7 2.3 2.7 1.1.4-.7-1.4-1.7-2.8-2.3-3.2-.6-.5-.5-.8.3-.8s1.1-.9.8-2.5c-.3-1.6.1-2.8 1.2-3.4.9-.5 1.5-1.2 1.2-1.4-.3-.3-1.3.1-2.4.8zM190.2 411.3c-.9 1.1-.8 1.8.8 3.2 1.1 1 2 1.3 2 .7 0-.7-.6-1.2-1.2-1.2-.9 0-.8-.3.2-1 1.1-.7 1.2-1.2.4-2-.8-.8-1.4-.7-2.2.3zM90.5 411.9c-.3.6.5 1.5 1.7 2.1 2.1 1 2.1 1 .6-.3-1-.8-1.5-1.7-1.1-2 .3-.4.4-.7 0-.7-.3 0-.8.4-1.2.9zM190.6 418c-.2.3-.2 1.4 0 2.5.1 1-.2 2.5-.7 3.1-1.3 1.6.3 2.5 2.1 1.3 1.3-.7 1.3-.9 0-.9-.9-.1-.5-.5.8-1 1.9-.8 2.1-1.3 1.3-2.9-.8-1.4-.7-2.1.2-2.4.6-.3.2-.4-1.1-.4-1.3.1-2.5.4-2.6.7zm2.5 2.1c.8 1.7.8 2-.2 1.7-.7-.2-1.3-1.2-1.5-2.1-.3-2.3.3-2.1 1.7.4zM292 418.6c-1.6 1.8-2.2 9.1-.9 9.9.5.4.6-.2.3-1.2-.5-1.6-.4-1.6 1 .1.9 1.1 1.8 1.7 2.1 1.4.3-.2-.4-1.3-1.5-2.3-2.4-2.2-2.7-4.3-.3-2.4 1.5 1.3 1.5 1.2.6-.6-1.6-2.9-1.6-3.7-.2-4.6.8-.4 1.1-1.1.8-1.4-.4-.3-1.2.2-1.9 1.1zM192.6 433.8c-.3.5.1.9.9.9s1.5-.4 1.5-.9c0-.4-.4-.8-.9-.8-.6 0-1.2.4-1.5.8zM293 435.4c0 .2.7.7 1.6 1 .8.3 1.2.2.9-.4-.6-1-2.5-1.4-2.5-.6zM190.7 436.7c-.3.5.1 1.4.8 2 1.1 1 1.3.9 1.2-.7-.1-2-1.2-2.6-2-1.3zM394.6 437.9c-.4.5-.2 1.2.3 1.5.5.4 1.2.2 1.5-.3.4-.5.2-1.2-.3-1.5-.5-.4-1.2-.2-1.5.3zM290.5 440c-.3.5-.1 1 .4 1 .6 0 1.1-.5 1.1-1 0-.6-.2-1-.4-1-.3 0-.8.4-1.1 1zM293 440.1c0 .5.5.7 1 .4.6-.3 1-.8 1-1.1 0-.2-.4-.4-1-.4-.5 0-1 .5-1 1.1zM290.7 442.7c-1 1-.8 2.3.4 2.3.5 0 .8-.4.4-.9-.3-.5.3-1.2 1.2-1.4 1.4-.4 1.5-.5.2-.6-.9 0-1.9.2-2.2.6zM323.7 446.7c-.9.9 2.3 4.3 4 4.3.8 0 1.3-.5 1.1-1.2-.6-1.6-4.3-3.9-5.1-3.1zm4.3 2.9c0 .2-.9 0-2-.6s-2-1.3-2-1.6c0-.2.9 0 2 .6s2 1.3 2 1.6zM101.6 448.5c-.3.8-.1 1.5.4 1.5.6 0 1-.7 1-1.5s-.2-1.5-.4-1.5-.6.7-1 1.5zM254.6 448.2c.3.5 1 .6 1.5.3 1.3-.9 1.1-1.2-.6-1.2-.8 0-1.2.4-.9.9zM267.1 448.1c-.1 2.6 2.5 3.1 2.7.6.1-1.6-.1-1.8-.7-.8-.7 1.1-.9 1.1-1.4 0-.4-1-.6-1-.6.2zM104.3 449.6c0 .8.3 1.2.5.9.3-.3 1.4.3 2.5 1.2 1.1 1 1.7 1.2 1.3.5-.4-.6-.2-1.2.3-1.2.6 0 1.1-.5 1.1-1 0-.6-.3-.9-.7-.9-.5.1-1 0-1.3-.1-2.1-.8-3.7-.6-3.7.6zM172 448.2c0 .3.9 1.5 2 2.8 2.1 2.4 3.2 2.2 3.6-.7.2-1.1 0-1.3-.9-.4-.8.8-1.6.6-2.9-.6-1-.9-1.8-1.4-1.8-1.1zM122.5 450c-.3.5-.1 1 .4 1 .6 0 1.1-.5 1.1-1 0-.6-.2-1-.4-1-.3 0-.8.4-1.1 1zM133.6 450.7c-.4.9-.4 1.8-.1 2.1.3.3.5 0 .5-.6s.8-1.2 1.8-1.4c1.5-.3 1.6-.4 0-1-1-.4-1.9-.1-2.2.9zM150.6 450.1c.3.5 1 .6 1.6.3.8-.5.9-.1.5 1s-.3 1.5.4 1.1c1.4-1 .6-2.8-1.4-3.1-.9-.1-1.5.2-1.1.7zM155 450.2c0 .4.7.8 1.5.8s1.5-.4 1.5-.8c0-.5-.7-.9-1.5-.9s-1.5.4-1.5.9zM179 450c0 .5.7 1 1.6 1 .8 0 1.3.4 1 .8-.3.5.1.9.9.9 1.8 0 1-1.4-1.6-2.7-1.3-.7-1.9-.7-1.9 0zM223.8 449.7c.7.3 1.6.2 1.9-.1.4-.3-.2-.6-1.3-.5-1.1 0-1.4.3-.6.6zM330.4 450.2c-.4.5-.3 1.2 0 1.5.3.4.6.1.6-.6s.5-.9 1-.6c.8.5.7 1.2-.2 2.3-1 1.4-1 1.5.2.5.8-.7 1.5-1.9 1.6-2.6.2-1.5-2.4-1.9-3.2-.5zM394.6 450.2c.3.5 1 .6 1.5.3 1.3-.9 1.1-1.2-.6-1.2-.8 0-1.2.4-.9.9zM33.7 452.1c.4 1.3.8 1.8 1.1 1 .2-.7-.1-1.8-.6-2.3-.8-.8-.9-.4-.5 1.3zM45.6 451.4c.4 1 1.2 1.5 1.9 1.2.7-.2 1.7 0 2.2.5.6.6 1 .4 1-.5 0-.7-.7-1.3-1.6-1.1-.9.1-2.2-.2-2.9-.8-.9-.7-1.1-.6-.6.7zM239 451.1c0 .5.5.7 1 .4.6-.3 1-.8 1-1.1 0-.2-.4-.4-1-.4-.5 0-1 .5-1 1.1zM423.3 451.5c0 .8.4 1.2.9.9.4-.3.8-.9.8-1.5 0-.5-.4-.9-.8-.9-.5 0-.9.7-.9 1.5zM445.6 451.5c.4.8 1.1 1.5 1.6 1.5.6 0 .5-.6-.2-1.5-.7-.8-1.4-1.5-1.6-1.5-.2 0-.1.7.2 1.5zM480.4 451.2c-.3.5-.3 1.2 0 1.5.3.4.6 0 .6-.8 0-1.1.2-1.1 1 .1.7 1.1 1 1.1 1 .2 0-1.4 3.1-1.2 4.3.3.5.6.7.4.4-.5-.4-1.6-6.4-2.3-7.3-.8zM36.7 452.8c.4.9.8 1.1 1 .5.3-.7 1.2-.9 2.1-.6.9.3 1.4.3 1.1-.1-.4-.4-1.6-.8-2.7-1.1-1.6-.3-1.9 0-1.5 1.3zM111 452c0 .5.5 1 1.1 1 .5 0 .7-.5.4-1-.3-.6-.8-1-1.1-1-.2 0-.4.4-.4 1zM114.5 452c-.3.6.1.7.9.4 1.8-.7 2.1-1.4.7-1.4-.6 0-1.3.4-1.6 1zM234.7 452.1c.7.7 1.5 1 1.8.7.3-.3-.2-.9-1.2-1.2-1.4-.6-1.5-.5-.6.5zM250.7 452.1c.7.7 1.5 1 1.8.7.3-.3-.2-.9-1.2-1.2-1.4-.6-1.5-.5-.6.5zM267 451.9c0 .6.4 1.3 1 1.6.6.3.7-.1.4-.9-.7-1.8-1.4-2.1-1.4-.7zM283 452.1c0 .5.5.7 1 .4.6-.3 1-.8 1-1.1 0-.2-.4-.4-1-.4-.5 0-1 .5-1 1.1zM436.7 452.7c.5 1.2.7 1.2 1.4.1.8-1.2 1.3-.4 1 1.5-.1.5.4.5 1 .2.8-.5.8-1 0-1.8-1.7-1.7-4-1.7-3.4 0zM467.5 452c-.3.5-.1 1 .4 1 .6 0 1.1-.5 1.1-1 0-.6-.2-1-.4-1-.3 0-.8.4-1.1 1zM30.8 452.7c.7.3 1.6.2 1.9-.1.4-.3-.2-.6-1.3-.5-1.1 0-1.4.3-.6.6z"/></svg>